#N canvas 211 46 1222 777 10;
#N canvas 741 169 641 559 BD 0;
#X obj -104 211 bng 15 250 50 0 empty empty empty 17 7 0 10 -262144
-1 -1;
#X obj -36 331 vline~;
#X obj -101 314 osc~;
#X obj -101 344 *~;
#X obj -103 261 sig~;
#X obj -102 288 *~;
#X obj -27 279 vline~;
#X msg -36 307 1 2 \, 0.8 2 8 \, 0 230 10;
#X msg -30 246 2 5 \, 0.8 2 8 \, 0 100 10;
#X obj 138 240 f;
#X obj 138 351 vline~;
#X msg 138 324 1 \$1 \, 0 \$2 \$1;
#X obj 138 294 pack f f;
#X obj 163 44 loadbang;
#X obj -99 370 *~;
#X floatatom -104 240 5 0 0 0 - - -;
#X obj -104 185 r BD;
#X obj -99 406 s~ BD;
#X obj 239 249 tgl 15 0 empty empty empty 17 7 0 10 -262144 -1 -1 0
1;
#X obj 108 134 hsl 80 15 0.01 5 0 1 empty empty Volume -2 -6 0 10 -262144
-1 -1 5684 1;
#X obj 107 164 hsl 80 15 50 180 0 0 empty empty Pitch -2 -6 0 10 -262144
-1 -1 1823 1;
#X obj 107 221 hsl 80 15 30 160 0 0 empty empty Decay -2 -6 0 10 -262144
-1 -1 7900 1;
#X obj 107 192 hsl 80 15 1 100 0 1 empty empty Attack -2 -6 0 10 -262144
-1 -1 0 1;
#X msg 258 194 160;
#X msg 137 79 80;
#X msg 77 76 3.6;
#X connect 0 0 8 0;
#X connect 0 0 7 0;
#X connect 0 0 9 0;
#X connect 0 0 15 0;
#X connect 2 0 3 0;
#X connect 3 0 14 0;
#X connect 4 0 5 0;
#X connect 5 0 2 0;
#X connect 6 0 5 1;
#X connect 7 0 1 0;
#X connect 8 0 6 0;
#X connect 9 0 12 0;
#X connect 10 0 3 1;
#X connect 11 0 10 0;
#X connect 12 0 11 0;
#X connect 13 0 23 0;
#X connect 13 0 24 0;
#X connect 13 0 25 0;
#X connect 14 0 17 0;
#X connect 15 0 4 0;
#X connect 16 0 0 0;
#X connect 19 0 14 1;
#X connect 20 0 15 0;
#X connect 21 0 12 1;
#X connect 22 0 9 1;
#X connect 23 0 21 0;
#X connect 24 0 20 0;
#X connect 25 0 19 0;
#X coords 0 -1 1 1 100 140 1 100 100;
#X restore 703 41 pd BD;
#N canvas 478 277 856 639 SD 0;
#X obj -160 117 bng 15 250 50 0 empty empty empty 17 7 0 10 -262144
-1 -1;
#X obj -218 144 noise~;
#X obj -160 163 osc~;
#X obj -159 187 +~;
#X obj -158 213 bp~;
#X msg -97 186 0.2;
#X obj -157 240 *~;
#X obj -3 224 vline~;
#X msg -132 187 1200;
#X obj -49 55 loadbang;
#X msg -160 141 165;
#X obj -218 164 hip~ 190;
#X obj -3 163 pack f f;
#X msg -3 188 1 \$1 \, 0 \$2 \$1;
#X obj -4 131 f;
#X msg 11 98 5;
#X obj -158 268 *~;
#X obj -159 92 r SD;
#X obj -158 296 s~ SD;
#X obj 110 141 hsl 60 15 0 1 0 0 empty empty Volume -2 -8 0 10 -262144
-1 -1 1770 1;
#X obj 110 176 hsl 60 15 30 280 0 0 empty empty Length -2 -8 0 10 -262144
-1 -1 4012 1;
#X msg 59 91 200;
#X msg 98 64 0.3;
#X connect 0 0 10 0;
#X connect 0 0 14 0;
#X connect 1 0 11 0;
#X connect 2 0 3 0;
#X connect 3 0 4 0;
#X connect 4 0 6 0;
#X connect 5 0 4 2;
#X connect 6 0 16 0;
#X connect 7 0 6 1;
#X connect 8 0 4 1;
#X connect 9 0 8 0;
#X connect 9 0 5 0;
#X connect 9 0 15 0;
#X connect 9 0 21 0;
#X connect 9 0 22 0;
#X connect 10 0 2 0;
#X connect 11 0 3 0;
#X connect 12 0 13 0;
#X connect 13 0 7 0;
#X connect 14 0 12 0;
#X connect 16 0 18 0;
#X connect 17 0 0 0;
#X connect 19 0 16 1;
#X connect 20 0 12 1;
#X connect 21 0 20 0;
#X connect 22 0 19 0;
#X coords 0 -1 1 1 85 100 1 100 100;
#X restore 813 40 pd SD;
#N canvas 270 194 637 405 HH 0;
#X obj 319 97 bng 15 250 50 0 empty empty empty 17 7 0 10 -262144 -1
-1;
#X obj 201 249 noise~;
#X obj 295 282 *~;
#X obj 332 146 vline~;
#X msg 216 122 1 1 \, 0.3 10 1 \, 0 10 12;
#X obj 357 97 bng 15 250 50 0 empty empty empty 17 7 0 10 -262144 -1
-1;
#X text 399 87 Open HH;
#X obj 252 266 bp~;
#X msg 291 215 1000;
#X msg 331 213 0.2;
#X obj 319 179 loadbang;
#X msg 358 121 1 1 \, 0.8 20 2 \, 0 180 22;
#X obj 296 306 *~;
#X floatatom 214 211 5 0 0 0 - - -;
#X obj 251 189 + 400;
#X floatatom 252 212 5 0 0 0 - - -;
#X obj 319 75 r HH;
#X obj 357 75 r OH;
#X text 238 83 Closed HH;
#X obj 294 329 s~ HH OH;
#X obj 112 171 hsl 80 15 600 1600 0 0 empty empty Pitch -2 -8 0 10
-262144 -1 -1 1580 1;
#X obj 111 136 hsl 80 15 0.01 1 0 0 empty empty Volume -2 -8 0 10 -262144
-1 -1 5506 1;
#X obj 39 19 loadbang;
#X msg 51 108 800;
#X msg 106 57 0.7;
#X connect 0 0 4 0;
#X connect 0 0 13 0;
#X connect 1 0 7 0;
#X connect 2 0 12 0;
#X connect 3 0 2 1;
#X connect 4 0 3 0;
#X connect 5 0 11 0;
#X connect 5 0 15 0;
#X connect 7 0 2 0;
#X connect 8 0 20 0;
#X connect 9 0 7 2;
#X connect 10 0 9 0;
#X connect 10 0 8 0;
#X connect 11 0 3 0;
#X connect 12 0 19 0;
#X connect 13 0 7 1;
#X connect 14 0 15 0;
#X connect 15 0 7 1;
#X connect 16 0 0 0;
#X connect 17 0 5 0;
#X connect 20 0 13 0;
#X connect 20 0 14 0;
#X connect 21 0 12 1;
#X connect 22 0 24 0;
#X connect 22 0 23 0;
#X connect 23 0 20 0;
#X connect 24 0 21 0;
#X coords 0 -1 1 1 100 100 1 100 100;
#X restore 913 40 pd HH;
#N canvas 170 326 631 425 CB 0;
#X obj -64 -28 bng 15 250 50 0 empty empty empty 17 7 0 10 -262144
-1 -1;
#X msg -82 2 587;
#X msg -46 2 845;
#X obj -82 35 phasor~;
#X obj -30 35 phasor~;
#X obj -82 75 expr~ $v1 > 0.5;
#X obj -82 154 *~;
#X obj 17 138 vline~;
#X obj -82 127 bp~;
#X msg -56 110 0.3;
#X obj -33 93 loadbang;
#X obj -83 54 *~ 0.7;
#X msg 17 -13 1 2 0 \, 0.3 4 3 \, 0 130 10;
#X obj 28 110 line;
#X msg 28 12 2300 2 0 \, 1800 4 3 \, 800 130 10;
#X obj -83 184 *~;
#X obj -64 -53 r CB;
#X obj -83 213 s~ CB;
#X obj 112 137 hsl 60 15 0 1 0 1 empty empty Volume -2 -8 0 10 -262144
-1 -1 1300 1;
#X connect 0 0 1 0;
#X connect 0 0 2 0;
#X connect 0 0 12 0;
#X connect 0 0 14 0;
#X connect 1 0 3 0;
#X connect 2 0 4 0;
#X connect 3 0 11 0;
#X connect 4 0 5 0;
#X connect 5 0 8 0;
#X connect 6 0 15 0;
#X connect 7 0 6 1;
#X connect 8 0 6 0;
#X connect 9 0 8 2;
#X connect 10 0 9 0;
#X connect 11 0 5 0;
#X connect 12 0 7 0;
#X connect 13 0 8 1;
#X connect 14 0 13 0;
#X connect 15 0 17 0;
#X connect 16 0 0 0;
#X connect 18 0 15 1;
#X coords 0 -1 1 1 85 60 1 100 100;
#X restore 1119 41 pd CB;
#X obj 650 473 +~;
#X obj 566 379 r~ BD;
#X obj 605 379 r~ SD;
#X obj 645 379 r~ HH OH;
#X obj 709 379 r~ WB;
#X obj 756 379 r~ CB;
#N canvas 313 227 985 553 Sequencer 0;
#X obj 138 144 hradio 15 1 0 16 empty empty empty 0 -8 0 10 -262144
-1 -1 9;
#X obj 488 162 del;
#X obj 437 179 bng 15 250 50 0 empty empty empty 17 7 0 10 -262144
-1 -1;
#X obj 517 140 *;
#X obj 320 120 hsl 60 20 0 0.65 0 0 empty empty Shuffle -2 -8 0 10
-262144 -1 -1 0 1;
#X floatatom 517 164 5 0 0 0 - - -;
#N canvas 194 32 875 250 BD 0;
#X text 100 101 BD;
#X obj 118 103 tgl 15 1 empty empty empty 17 7 0 10 -260097 -1 -1 1
1;
#X obj 148 103 tgl 15 0 empty empty empty 17 7 0 10 -262144 -1 -1 0
3;
#X obj 133 103 tgl 15 0 empty empty empty 17 7 0 10 -262144 -1 -1 0
2;
#X obj 163 103 tgl 15 0 empty empty empty 17 7 0 10 -262144 -1 -1 0
4;
#X obj 178 103 tgl 15 1 empty empty empty 17 7 0 10 -260097 -1 -1 5
5;
#X obj 208 103 tgl 15 0 empty empty empty 17 7 0 10 -262144 -1 -1 0
7;
#X obj 193 103 tgl 15 0 empty empty empty 17 7 0 10 -262144 -1 -1 0
6;
#X obj 223 103 tgl 15 0 empty empty empty 17 7 0 10 -262144 -1 -1 0
8;
#X obj 238 103 tgl 15 1 empty empty empty 17 7 0 10 -260097 -1 -1 9
9;
#X obj 268 103 tgl 15 0 empty empty empty 17 7 0 10 -262144 -1 -1 0
11;
#X obj 253 103 tgl 15 0 empty empty empty 17 7 0 10 -262144 -1 -1 0
10;
#X obj 283 103 tgl 15 0 empty empty empty 17 7 0 10 -262144 -1 -1 0
12;
#X obj 298 103 tgl 15 1 empty empty empty 17 7 0 10 -260097 -1 -1 13
13;
#X obj 328 103 tgl 15 0 empty empty empty 17 7 0 10 -262144 -1 -1 0
15;
#X obj 313 103 tgl 15 0 empty empty empty 17 7 0 10 -262144 -1 -1 0
14;
#X obj 343 103 tgl 15 0 empty empty empty 17 7 0 10 -262144 -1 -1 0
16;
#X obj 423 66 + 1;
#X obj 392 115 ==;
#X obj 417 115 ==;
#X obj 442 115 ==;
#X obj 467 115 ==;
#X obj 397 156 spigot;
#X obj 493 115 ==;
#X obj 518 115 ==;
#X obj 543 115 ==;
#X obj 568 115 ==;
#X obj 592 115 ==;
#X obj 617 115 ==;
#X obj 642 115 ==;
#X obj 667 115 ==;
#X obj 693 115 ==;
#X obj 718 115 ==;
#X obj 743 115 ==;
#X obj 768 115 ==;
#X obj 422 37 r count;
#X obj 398 188 s BD;
#X connect 1 0 18 1;
#X connect 2 0 20 1;
#X connect 3 0 19 1;
#X connect 4 0 21 1;
#X connect 5 0 23 1;
#X connect 6 0 25 1;
#X connect 7 0 24 1;
#X connect 8 0 26 1;
#X connect 9 0 27 1;
#X connect 10 0 29 1;
#X connect 11 0 28 1;
#X connect 12 0 30 1;
#X connect 13 0 31 1;
#X connect 14 0 33 1;
#X connect 15 0 32 1;
#X connect 16 0 34 1;
#X connect 17 0 21 0;
#X connect 17 0 20 0;
#X connect 17 0 19 0;
#X connect 17 0 18 0;
#X connect 17 0 23 0;
#X connect 17 0 24 0;
#X connect 17 0 25 0;
#X connect 17 0 26 0;
#X connect 17 0 27 0;
#X connect 17 0 28 0;
#X connect 17 0 29 0;
#X connect 17 0 30 0;
#X connect 17 0 31 0;
#X connect 17 0 32 0;
#X connect 17 0 33 0;
#X connect 17 0 34 0;
#X connect 18 0 22 1;
#X connect 18 0 22 0;
#X connect 19 0 22 1;
#X connect 19 0 22 0;
#X connect 20 0 22 1;
#X connect 20 0 22 0;
#X connect 21 0 22 1;
#X connect 21 0 22 0;
#X connect 22 0 36 0;
#X connect 23 0 22 1;
#X connect 23 0 22 0;
#X connect 24 0 22 1;
#X connect 24 0 22 0;
#X connect 25 0 22 1;
#X connect 25 0 22 0;
#X connect 26 0 22 1;
#X connect 26 0 22 0;
#X connect 27 0 22 1;
#X connect 27 0 22 0;
#X connect 28 0 22 1;
#X connect 28 0 22 0;
#X connect 29 0 22 1;
#X connect 29 0 22 0;
#X connect 30 0 22 1;
#X connect 30 0 22 0;
#X connect 31 0 22 1;
#X connect 31 0 22 0;
#X connect 32 0 22 1;
#X connect 32 0 22 0;
#X connect 33 0 22 1;
#X connect 33 0 22 0;
#X connect 34 0 22 1;
#X connect 34 0 22 0;
#X connect 35 0 17 0;
#X coords 0 250 1 249 260 20 2 100 100;
#X restore 120 163 pd BD Logic;
#N canvas 546 154 875 250 SD 0;
#X obj 18 3 tgl 15 0 empty empty empty 17 7 0 10 -260097 -1 -1 0 1
;
#X obj 48 3 tgl 15 0 empty empty empty 17 7 0 10 -262144 -1 -1 0 3
;
#X obj 33 3 tgl 15 0 empty empty empty 17 7 0 10 -262144 -1 -1 0 2
;
#X obj 63 3 tgl 15 0 empty empty empty 17 7 0 10 -262144 -1 -1 0 4
;
#X obj 78 3 tgl 15 0 empty empty empty 17 7 0 10 -260097 -1 -1 0 5
;
#X obj 108 3 tgl 15 0 empty empty empty 17 7 0 10 -262144 -1 -1 0 7
;
#X obj 93 3 tgl 15 0 empty empty empty 17 7 0 10 -262144 -1 -1 0 6
;
#X obj 123 3 tgl 15 0 empty empty empty 17 7 0 10 -262144 -1 -1 0 8
;
#X obj 138 3 tgl 15 0 empty empty empty 17 7 0 10 -260097 -1 -1 0 9
;
#X obj 168 3 tgl 15 0 empty empty empty 17 7 0 10 -262144 -1 -1 0 11
;
#X obj 153 3 tgl 15 0 empty empty empty 17 7 0 10 -262144 -1 -1 0 10
;
#X obj 183 3 tgl 15 0 empty empty empty 17 7 0 10 -262144 -1 -1 0 12
;
#X obj 198 3 tgl 15 0 empty empty empty 17 7 0 10 -260097 -1 -1 0 13
;
#X obj 228 3 tgl 15 0 empty empty empty 17 7 0 10 -262144 -1 -1 0 15
;
#X obj 213 3 tgl 15 0 empty empty empty 17 7 0 10 -262144 -1 -1 0 14
;
#X obj 243 3 tgl 15 0 empty empty empty 17 7 0 10 -262144 -1 -1 0 16
;
#X obj 322 -34 + 1;
#X obj 291 15 ==;
#X obj 316 15 ==;
#X obj 341 15 ==;
#X obj 366 15 ==;
#X obj 296 56 spigot;
#X obj 392 15 ==;
#X obj 417 15 ==;
#X obj 442 15 ==;
#X obj 467 15 ==;
#X obj 491 15 ==;
#X obj 516 15 ==;
#X obj 541 15 ==;
#X obj 566 15 ==;
#X obj 592 15 ==;
#X obj 617 15 ==;
#X obj 642 15 ==;
#X obj 667 15 ==;
#X text 0 1 SD;
#X obj 322 -63 r count;
#X obj 296 90 s SD;
#X obj 185 -145 r highPitch;
#X msg 700 -113 bang;
#X msg 575 -57 1;
#X msg 589 -57 2;
#X msg 617 -57 4;
#X msg 603 -57 3;
#X msg 630 -57 5;
#X msg 643 -57 6;
#X msg 657 -57 7;
#X msg 670 -57 8;
#X msg 684 -57 9;
#X msg 699 -57 10;
#X msg 714 -57 11;
#X msg 729 -57 12;
#X msg 744 -57 13;
#X msg 759 -57 14;
#X msg 773 -57 15;
#X msg 788 -57 16;
#X connect 0 0 17 1;
#X connect 1 0 19 1;
#X connect 2 0 18 1;
#X connect 3 0 20 1;
#X connect 4 0 22 1;
#X connect 5 0 24 1;
#X connect 6 0 23 1;
#X connect 7 0 25 1;
#X connect 8 0 26 1;
#X connect 9 0 28 1;
#X connect 10 0 27 1;
#X connect 11 0 29 1;
#X connect 12 0 30 1;
#X connect 13 0 32 1;
#X connect 14 0 31 1;
#X connect 15 0 33 1;
#X connect 16 0 20 0;
#X connect 16 0 19 0;
#X connect 16 0 18 0;
#X connect 16 0 17 0;
#X connect 16 0 22 0;
#X connect 16 0 23 0;
#X connect 16 0 24 0;
#X connect 16 0 25 0;
#X connect 16 0 26 0;
#X connect 16 0 27 0;
#X connect 16 0 28 0;
#X connect 16 0 29 0;
#X connect 16 0 30 0;
#X connect 16 0 31 0;
#X connect 16 0 32 0;
#X connect 16 0 33 0;
#X connect 17 0 21 1;
#X connect 17 0 21 0;
#X connect 18 0 21 1;
#X connect 18 0 21 0;
#X connect 19 0 21 1;
#X connect 19 0 21 0;
#X connect 20 0 21 1;
#X connect 20 0 21 0;
#X connect 21 0 36 0;
#X connect 22 0 21 1;
#X connect 22 0 21 0;
#X connect 23 0 21 1;
#X connect 23 0 21 0;
#X connect 24 0 21 1;
#X connect 24 0 21 0;
#X connect 25 0 21 1;
#X connect 25 0 21 0;
#X connect 26 0 21 1;
#X connect 26 0 21 0;
#X connect 27 0 21 1;
#X connect 27 0 21 0;
#X connect 28 0 21 1;
#X connect 28 0 21 0;
#X connect 29 0 21 1;
#X connect 29 0 21 0;
#X connect 30 0 21 1;
#X connect 30 0 21 0;
#X connect 31 0 21 1;
#X connect 31 0 21 0;
#X connect 32 0 21 1;
#X connect 32 0 21 0;
#X connect 33 0 21 1;
#X connect 33 0 21 0;
#X connect 35 0 16 0;
#X connect 38 0 39 0;
#X connect 38 0 40 0;
#X connect 38 0 42 0;
#X connect 38 0 41 0;
#X connect 38 0 43 0;
#X connect 38 0 44 0;
#X connect 38 0 45 0;
#X connect 38 0 46 0;
#X connect 38 0 47 0;
#X connect 38 0 48 0;
#X connect 38 0 49 0;
#X connect 38 0 50 0;
#X connect 38 0 51 0;
#X connect 38 0 52 0;
#X connect 38 0 53 0;
#X connect 38 0 54 0;
#X coords 0 250 1 249 260 20 2 0 0;
#X restore 120 187 pd SD Logic;
#N canvas 488 221 875 250 HH 0;
#X obj 18 3 tgl 15 0 empty empty empty 17 7 0 10 -260097 -1 -1 0 1
;
#X obj 48 3 tgl 15 0 empty empty empty 17 7 0 10 -262144 -1 -1 0 3
;
#X obj 33 3 tgl 15 0 empty empty empty 17 7 0 10 -262144 -1 -1 0 2
;
#X obj 63 3 tgl 15 0 empty empty empty 17 7 0 10 -262144 -1 -1 0 4
;
#X obj 78 3 tgl 15 1 empty empty empty 17 7 0 10 -260097 -1 -1 5 5
;
#X obj 108 3 tgl 15 0 empty empty empty 17 7 0 10 -262144 -1 -1 0 7
;
#X obj 93 3 tgl 15 0 empty empty empty 17 7 0 10 -262144 -1 -1 0 6
;
#X obj 123 3 tgl 15 0 empty empty empty 17 7 0 10 -262144 -1 -1 0 8
;
#X obj 138 3 tgl 15 0 empty empty empty 17 7 0 10 -260097 -1 -1 0 9
;
#X obj 168 3 tgl 15 0 empty empty empty 17 7 0 10 -262144 -1 -1 0 11
;
#X obj 153 3 tgl 15 0 empty empty empty 17 7 0 10 -262144 -1 -1 0 10
;
#X obj 183 3 tgl 15 0 empty empty empty 17 7 0 10 -262144 -1 -1 0 12
;
#X obj 198 3 tgl 15 0 empty empty empty 17 7 0 10 -260097 -1 -1 0 13
;
#X obj 228 3 tgl 15 0 empty empty empty 17 7 0 10 -262144 -1 -1 0 15
;
#X obj 213 3 tgl 15 0 empty empty empty 17 7 0 10 -262144 -1 -1 0 14
;
#X obj 243 3 tgl 15 0 empty empty empty 17 7 0 10 -262144 -1 -1 0 16
;
#X obj 322 -34 + 1;
#X obj 291 15 ==;
#X obj 316 15 ==;
#X obj 341 15 ==;
#X obj 366 15 ==;
#X obj 296 56 spigot;
#X obj 392 15 ==;
#X obj 417 15 ==;
#X obj 442 15 ==;
#X obj 467 15 ==;
#X obj 491 15 ==;
#X obj 516 15 ==;
#X obj 541 15 ==;
#X obj 566 15 ==;
#X obj 592 15 ==;
#X obj 617 15 ==;
#X obj 642 15 ==;
#X obj 667 15 ==;
#X text 0 1 HH;
#X obj 322 -63 r count;
#X obj 296 90 s HH;
#X connect 0 0 17 1;
#X connect 1 0 19 1;
#X connect 2 0 18 1;
#X connect 3 0 20 1;
#X connect 4 0 22 1;
#X connect 5 0 24 1;
#X connect 6 0 23 1;
#X connect 7 0 25 1;
#X connect 8 0 26 1;
#X connect 9 0 28 1;
#X connect 10 0 27 1;
#X connect 11 0 29 1;
#X connect 12 0 30 1;
#X connect 13 0 32 1;
#X connect 14 0 31 1;
#X connect 15 0 33 1;
#X connect 16 0 20 0;
#X connect 16 0 19 0;
#X connect 16 0 18 0;
#X connect 16 0 17 0;
#X connect 16 0 22 0;
#X connect 16 0 23 0;
#X connect 16 0 24 0;
#X connect 16 0 25 0;
#X connect 16 0 26 0;
#X connect 16 0 27 0;
#X connect 16 0 28 0;
#X connect 16 0 29 0;
#X connect 16 0 30 0;
#X connect 16 0 31 0;
#X connect 16 0 32 0;
#X connect 16 0 33 0;
#X connect 17 0 21 1;
#X connect 17 0 21 0;
#X connect 18 0 21 1;
#X connect 18 0 21 0;
#X connect 19 0 21 1;
#X connect 19 0 21 0;
#X connect 20 0 21 1;
#X connect 20 0 21 0;
#X connect 21 0 36 0;
#X connect 22 0 21 1;
#X connect 22 0 21 0;
#X connect 23 0 21 1;
#X connect 23 0 21 0;
#X connect 24 0 21 1;
#X connect 24 0 21 0;
#X connect 25 0 21 1;
#X connect 25 0 21 0;
#X connect 26 0 21 1;
#X connect 26 0 21 0;
#X connect 27 0 21 1;
#X connect 27 0 21 0;
#X connect 28 0 21 1;
#X connect 28 0 21 0;
#X connect 29 0 21 1;
#X connect 29 0 21 0;
#X connect 30 0 21 1;
#X connect 30 0 21 0;
#X connect 31 0 21 1;
#X connect 31 0 21 0;
#X connect 32 0 21 1;
#X connect 32 0 21 0;
#X connect 33 0 21 1;
#X connect 33 0 21 0;
#X connect 35 0 16 0;
#X coords 0 -1 1 1 260 20 2 0 0;
#X restore 120 211 pd HH Logic;
#N canvas 546 145 875 250 OH 0;
#X obj 17 3 tgl 15 0 empty empty empty 17 7 0 10 -260097 -1 -1 0 1
;
#X obj 47 3 tgl 15 0 empty empty empty 17 7 0 10 -262144 -1 -1 0 3
;
#X obj 32 3 tgl 15 0 empty empty empty 17 7 0 10 -262144 -1 -1 0 2
;
#X obj 62 3 tgl 15 0 empty empty empty 17 7 0 10 -262144 -1 -1 0 4
;
#X obj 77 3 tgl 15 0 empty empty empty 17 7 0 10 -260097 -1 -1 0 5
;
#X obj 107 3 tgl 15 0 empty empty empty 17 7 0 10 -262144 -1 -1 0 7
;
#X obj 92 3 tgl 15 0 empty empty empty 17 7 0 10 -262144 -1 -1 0 6
;
#X obj 122 3 tgl 15 0 empty empty empty 17 7 0 10 -262144 -1 -1 0 8
;
#X obj 137 3 tgl 15 0 empty empty empty 17 7 0 10 -260097 -1 -1 0 9
;
#X obj 167 3 tgl 15 0 empty empty empty 17 7 0 10 -262144 -1 -1 0 11
;
#X obj 152 3 tgl 15 0 empty empty empty 17 7 0 10 -262144 -1 -1 0 10
;
#X obj 182 3 tgl 15 0 empty empty empty 17 7 0 10 -262144 -1 -1 0 12
;
#X obj 197 3 tgl 15 0 empty empty empty 17 7 0 10 -260097 -1 -1 0 13
;
#X obj 227 3 tgl 15 0 empty empty empty 17 7 0 10 -262144 -1 -1 0 15
;
#X obj 212 3 tgl 15 0 empty empty empty 17 7 0 10 -262144 -1 -1 0 14
;
#X obj 242 3 tgl 15 0 empty empty empty 17 7 0 10 -262144 -1 -1 0 16
;
#X obj 321 -34 + 1;
#X obj 290 15 ==;
#X obj 315 15 ==;
#X obj 340 15 ==;
#X obj 365 15 ==;
#X obj 295 56 spigot;
#X obj 391 15 ==;
#X obj 416 15 ==;
#X obj 441 15 ==;
#X obj 466 15 ==;
#X obj 490 15 ==;
#X obj 515 15 ==;
#X obj 540 15 ==;
#X obj 565 15 ==;
#X obj 591 15 ==;
#X obj 616 15 ==;
#X obj 641 15 ==;
#X obj 666 15 ==;
#X text 0 1 OH;
#X obj 321 -63 r count;
#X obj 295 90 s OH;
#X msg 115 -67 0;
#X obj 114 -94 t b b;
#X obj 150 -67 bng 15 250 50 0 empty empty empty 17 7 0 10 -262144
-1 -1;
#N canvas 0 22 450 300 hub 0;
#X obj 113 56 inlet;
#X obj 113 113 outlet;
#X connect 0 0 1 0;
#X restore 121 -45 pd hub;
#X msg 74 -96 0;
#X obj 90 -149 r highPitch;
#X obj 93 -124 moses 1;
#X connect 0 0 17 1;
#X connect 1 0 19 1;
#X connect 2 0 18 1;
#X connect 3 0 20 1;
#X connect 4 0 22 1;
#X connect 5 0 24 1;
#X connect 6 0 23 1;
#X connect 7 0 25 1;
#X connect 8 0 26 1;
#X connect 9 0 28 1;
#X connect 10 0 27 1;
#X connect 11 0 29 1;
#X connect 12 0 30 1;
#X connect 13 0 32 1;
#X connect 14 0 31 1;
#X connect 15 0 33 1;
#X connect 16 0 20 0;
#X connect 16 0 19 0;
#X connect 16 0 18 0;
#X connect 16 0 17 0;
#X connect 16 0 22 0;
#X connect 16 0 23 0;
#X connect 16 0 24 0;
#X connect 16 0 25 0;
#X connect 16 0 26 0;
#X connect 16 0 27 0;
#X connect 16 0 28 0;
#X connect 16 0 29 0;
#X connect 16 0 30 0;
#X connect 16 0 31 0;
#X connect 16 0 32 0;
#X connect 16 0 33 0;
#X connect 17 0 21 1;
#X connect 17 0 21 0;
#X connect 18 0 21 1;
#X connect 18 0 21 0;
#X connect 19 0 21 1;
#X connect 19 0 21 0;
#X connect 20 0 21 1;
#X connect 20 0 21 0;
#X connect 21 0 36 0;
#X connect 22 0 21 1;
#X connect 22 0 21 0;
#X connect 23 0 21 1;
#X connect 23 0 21 0;
#X connect 24 0 21 1;
#X connect 24 0 21 0;
#X connect 25 0 21 1;
#X connect 25 0 21 0;
#X connect 26 0 21 1;
#X connect 26 0 21 0;
#X connect 27 0 21 1;
#X connect 27 0 21 0;
#X connect 28 0 21 1;
#X connect 28 0 21 0;
#X connect 29 0 21 1;
#X connect 29 0 21 0;
#X connect 30 0 21 1;
#X connect 30 0 21 0;
#X connect 31 0 21 1;
#X connect 31 0 21 0;
#X connect 32 0 21 1;
#X connect 32 0 21 0;
#X connect 33 0 21 1;
#X connect 33 0 21 0;
#X connect 35 0 16 0;
#X connect 37 0 40 0;
#X connect 38 0 39 0;
#X connect 38 1 37 0;
#X connect 39 0 40 0;
#X connect 40 0 0 0;
#X connect 40 0 2 0;
#X connect 40 0 1 0;
#X connect 40 0 3 0;
#X connect 40 0 4 0;
#X connect 40 0 6 0;
#X connect 40 0 5 0;
#X connect 40 0 7 0;
#X connect 40 0 8 0;
#X connect 40 0 10 0;
#X connect 40 0 9 0;
#X connect 40 0 11 0;
#X connect 40 0 12 0;
#X connect 40 0 14 0;
#X connect 40 0 13 0;
#X connect 40 0 15 0;
#X connect 41 0 40 0;
#X connect 42 0 43 0;
#X connect 43 0 41 0;
#X connect 43 1 38 0;
#X coords 0 250 1 249 260 20 2 0 0;
#X restore 120 236 pd OH Logic;
#N canvas 480 245 875 250 WB 0;
#X obj 17 3 tgl 15 0 empty empty empty 17 7 0 10 -260097 -1 -1 0 1
;
#X obj 47 3 tgl 15 0 empty empty empty 17 7 0 10 -262144 -1 -1 3 3
;
#X obj 32 3 tgl 15 0 empty empty empty 17 7 0 10 -262144 -1 -1 0 2
;
#X obj 62 3 tgl 15 0 empty empty empty 17 7 0 10 -262144 -1 -1 0 4
;
#X obj 77 3 tgl 15 0 empty empty empty 17 7 0 10 -260097 -1 -1 5 5
;
#X obj 107 3 tgl 15 0 empty empty empty 17 7 0 10 -262144 -1 -1 7 7
;
#X obj 92 3 tgl 15 0 empty empty empty 17 7 0 10 -262144 -1 -1 0 6
;
#X obj 122 3 tgl 15 0 empty empty empty 17 7 0 10 -262144 -1 -1 0 8
;
#X obj 137 3 tgl 15 0 empty empty empty 17 7 0 10 -260097 -1 -1 9 9
;
#X obj 167 3 tgl 15 0 empty empty empty 17 7 0 10 -262144 -1 -1 11
11;
#X obj 152 3 tgl 15 0 empty empty empty 17 7 0 10 -262144 -1 -1 10
10;
#X obj 182 3 tgl 15 0 empty empty empty 17 7 0 10 -262144 -1 -1 12
12;
#X obj 197 3 tgl 15 0 empty empty empty 17 7 0 10 -260097 -1 -1 13
13;
#X obj 227 3 tgl 15 0 empty empty empty 17 7 0 10 -262144 -1 -1 15
15;
#X obj 212 3 tgl 15 0 empty empty empty 17 7 0 10 -262144 -1 -1 0 14
;
#X obj 242 3 tgl 15 0 empty empty empty 17 7 0 10 -262144 -1 -1 16
16;
#X obj 321 -34 + 1;
#X obj 290 15 ==;
#X obj 315 15 ==;
#X obj 340 15 ==;
#X obj 365 15 ==;
#X obj 295 56 spigot;
#X obj 391 15 ==;
#X obj 416 15 ==;
#X obj 441 15 ==;
#X obj 466 15 ==;
#X obj 490 15 ==;
#X obj 515 15 ==;
#X obj 540 15 ==;
#X obj 565 15 ==;
#X obj 591 15 ==;
#X obj 616 15 ==;
#X obj 641 15 ==;
#X obj 666 15 ==;
#X text 0 1 WB;
#X obj 321 -63 r count;
#X obj 295 90 s WB;
#X obj 84 -45 loadbang;
#X connect 0 0 17 1;
#X connect 1 0 19 1;
#X connect 2 0 18 1;
#X connect 3 0 20 1;
#X connect 4 0 22 1;
#X connect 5 0 24 1;
#X connect 6 0 23 1;
#X connect 7 0 25 1;
#X connect 8 0 26 1;
#X connect 9 0 28 1;
#X connect 10 0 27 1;
#X connect 11 0 29 1;
#X connect 12 0 30 1;
#X connect 13 0 32 1;
#X connect 14 0 31 1;
#X connect 15 0 33 1;
#X connect 16 0 20 0;
#X connect 16 0 19 0;
#X connect 16 0 18 0;
#X connect 16 0 17 0;
#X connect 16 0 22 0;
#X connect 16 0 23 0;
#X connect 16 0 24 0;
#X connect 16 0 25 0;
#X connect 16 0 26 0;
#X connect 16 0 27 0;
#X connect 16 0 28 0;
#X connect 16 0 29 0;
#X connect 16 0 30 0;
#X connect 16 0 31 0;
#X connect 16 0 32 0;
#X connect 16 0 33 0;
#X connect 17 0 21 1;
#X connect 17 0 21 0;
#X connect 18 0 21 1;
#X connect 18 0 21 0;
#X connect 19 0 21 1;
#X connect 19 0 21 0;
#X connect 20 0 21 1;
#X connect 20 0 21 0;
#X connect 21 0 36 0;
#X connect 22 0 21 1;
#X connect 22 0 21 0;
#X connect 23 0 21 1;
#X connect 23 0 21 0;
#X connect 24 0 21 1;
#X connect 24 0 21 0;
#X connect 25 0 21 1;
#X connect 25 0 21 0;
#X connect 26 0 21 1;
#X connect 26 0 21 0;
#X connect 27 0 21 1;
#X connect 27 0 21 0;
#X connect 28 0 21 1;
#X connect 28 0 21 0;
#X connect 29 0 21 1;
#X connect 29 0 21 0;
#X connect 30 0 21 1;
#X connect 30 0 21 0;
#X connect 31 0 21 1;
#X connect 31 0 21 0;
#X connect 32 0 21 1;
#X connect 32 0 21 0;
#X connect 33 0 21 1;
#X connect 33 0 21 0;
#X connect 35 0 16 0;
#X connect 37 0 1 0;
#X connect 37 0 4 0;
#X connect 37 0 5 0;
#X connect 37 0 8 0;
#X connect 37 0 10 0;
#X connect 37 0 9 0;
#X connect 37 0 11 0;
#X connect 37 0 12 0;
#X connect 37 0 13 0;
#X connect 37 0 15 0;
#X coords 0 250 1 249 260 20 2 0 0;
#X restore 120 261 pd WB Logic;
#N canvas 478 251 875 250 CB 0;
#X obj 17 3 tgl 15 0 empty empty empty 17 7 0 10 -260097 -1 -1 0 1
;
#X obj 47 3 tgl 15 0 empty empty empty 17 7 0 10 -262144 -1 -1 0 3
;
#X obj 32 3 tgl 15 0 empty empty empty 17 7 0 10 -262144 -1 -1 0 2
;
#X obj 62 3 tgl 15 0 empty empty empty 17 7 0 10 -262144 -1 -1 0 4
;
#X obj 77 3 tgl 15 0 empty empty empty 17 7 0 10 -260097 -1 -1 0 5
;
#X obj 107 3 tgl 15 0 empty empty empty 17 7 0 10 -262144 -1 -1 0 7
;
#X obj 92 3 tgl 15 0 empty empty empty 17 7 0 10 -262144 -1 -1 0 6
;
#X obj 122 3 tgl 15 0 empty empty empty 17 7 0 10 -262144 -1 -1 0 8
;
#X obj 137 3 tgl 15 0 empty empty empty 17 7 0 10 -260097 -1 -1 0 9
;
#X obj 167 3 tgl 15 0 empty empty empty 17 7 0 10 -262144 -1 -1 0 11
;
#X obj 152 3 tgl 15 0 empty empty empty 17 7 0 10 -262144 -1 -1 0 10
;
#X obj 182 3 tgl 15 0 empty empty empty 17 7 0 10 -262144 -1 -1 0 12
;
#X obj 197 3 tgl 15 0 empty empty empty 17 7 0 10 -260097 -1 -1 0 13
;
#X obj 227 3 tgl 15 0 empty empty empty 17 7 0 10 -262144 -1 -1 0 15
;
#X obj 212 3 tgl 15 0 empty empty empty 17 7 0 10 -262144 -1 -1 0 14
;
#X obj 242 3 tgl 15 0 empty empty empty 17 7 0 10 -262144 -1 -1 16
16;
#X obj 321 -34 + 1;
#X obj 290 15 ==;
#X obj 315 15 ==;
#X obj 340 15 ==;
#X obj 365 15 ==;
#X obj 295 56 spigot;
#X obj 391 15 ==;
#X obj 416 15 ==;
#X obj 441 15 ==;
#X obj 466 15 ==;
#X obj 490 15 ==;
#X obj 515 15 ==;
#X obj 540 15 ==;
#X obj 565 15 ==;
#X obj 591 15 ==;
#X obj 616 15 ==;
#X obj 641 15 ==;
#X obj 666 15 ==;
#X text 0 1 CB;
#X obj 321 -63 r count;
#X obj 295 90 s CB;
#X obj 163 -35 loadbang;
#X connect 0 0 17 1;
#X connect 1 0 19 1;
#X connect 2 0 18 1;
#X connect 3 0 20 1;
#X connect 4 0 22 1;
#X connect 5 0 24 1;
#X connect 6 0 23 1;
#X connect 7 0 25 1;
#X connect 8 0 26 1;
#X connect 9 0 28 1;
#X connect 10 0 27 1;
#X connect 11 0 29 1;
#X connect 12 0 30 1;
#X connect 13 0 32 1;
#X connect 14 0 31 1;
#X connect 15 0 33 1;
#X connect 16 0 20 0;
#X connect 16 0 19 0;
#X connect 16 0 18 0;
#X connect 16 0 17 0;
#X connect 16 0 22 0;
#X connect 16 0 23 0;
#X connect 16 0 24 0;
#X connect 16 0 25 0;
#X connect 16 0 26 0;
#X connect 16 0 27 0;
#X connect 16 0 28 0;
#X connect 16 0 29 0;
#X connect 16 0 30 0;
#X connect 16 0 31 0;
#X connect 16 0 32 0;
#X connect 16 0 33 0;
#X connect 17 0 21 1;
#X connect 17 0 21 0;
#X connect 18 0 21 1;
#X connect 18 0 21 0;
#X connect 19 0 21 1;
#X connect 19 0 21 0;
#X connect 20 0 21 1;
#X connect 20 0 21 0;
#X connect 21 0 36 0;
#X connect 22 0 21 1;
#X connect 22 0 21 0;
#X connect 23 0 21 1;
#X connect 23 0 21 0;
#X connect 24 0 21 1;
#X connect 24 0 21 0;
#X connect 25 0 21 1;
#X connect 25 0 21 0;
#X connect 26 0 21 1;
#X connect 26 0 21 0;
#X connect 27 0 21 1;
#X connect 27 0 21 0;
#X connect 28 0 21 1;
#X connect 28 0 21 0;
#X connect 29 0 21 1;
#X connect 29 0 21 0;
#X connect 30 0 21 1;
#X connect 30 0 21 0;
#X connect 31 0 21 1;
#X connect 31 0 21 0;
#X connect 32 0 21 1;
#X connect 32 0 21 0;
#X connect 33 0 21 1;
#X connect 33 0 21 0;
#X connect 35 0 16 0;
#X connect 37 0 15 0;
#X coords 0 -1 1 1 260 20 2 0 0;
#X restore 120 286 pd CB Logic;
#X obj 518 218 s count;
#X obj 126 60 s Metro Bang;
#X obj 354 64 s Tempo;
#X obj 437 109 r Metro Bang;
#X obj 532 115 r Tempo;
#X obj 138 80 r count;
#N canvas 693 311 450 300 x0x 0;
#X obj 24 149 tgl 15 0 empty empty empty 17 7 0 10 -260097 -1 -1 0
1;
#X obj 54 149 tgl 15 0 empty empty empty 17 7 0 10 -262144 -1 -1 0
3;
#X obj 39 149 tgl 15 0 empty empty empty 17 7 0 10 -262144 -1 -1 0
2;
#X obj 69 149 tgl 15 0 empty empty empty 17 7 0 10 -262144 -1 -1 0
4;
#X obj 84 149 tgl 15 0 empty empty empty 17 7 0 10 -260097 -1 -1 0
5;
#X obj 114 149 tgl 15 0 empty empty empty 17 7 0 10 -262144 -1 -1 0
7;
#X obj 99 149 tgl 15 0 empty empty empty 17 7 0 10 -262144 -1 -1 0
6;
#X obj 129 149 tgl 15 0 empty empty empty 17 7 0 10 -262144 -1 -1 0
8;
#X obj 144 149 tgl 15 0 empty empty empty 17 7 0 10 -260097 -1 -1 0
9;
#X obj 174 149 tgl 15 0 empty empty empty 17 7 0 10 -262144 -1 -1 0
11;
#X obj 159 149 tgl 15 0 empty empty empty 17 7 0 10 -262144 -1 -1 0
10;
#X obj 189 149 tgl 15 0 empty empty empty 17 7 0 10 -262144 -1 -1 0
12;
#X obj 204 149 tgl 15 0 empty empty empty 17 7 0 10 -260097 -1 -1 0
13;
#X obj 234 149 tgl 15 0 empty empty empty 17 7 0 10 -262144 -1 -1 0
15;
#X obj 219 149 tgl 15 0 empty empty empty 17 7 0 10 -262144 -1 -1 0
14;
#X obj 249 149 tgl 15 0 empty empty empty 17 7 0 10 -262144 -1 -1 0
16;
#X obj 328 115 + 1;
#X obj 297 164 ==;
#X obj 322 164 ==;
#X obj 347 164 ==;
#X obj 372 164 ==;
#X obj 302 205 spigot;
#X obj 398 164 ==;
#X obj 423 164 ==;
#X obj 448 164 ==;
#X obj 473 164 ==;
#X obj 497 164 ==;
#X obj 522 164 ==;
#X obj 547 164 ==;
#X obj 572 164 ==;
#X obj 598 164 ==;
#X obj 623 164 ==;
#X obj 648 164 ==;
#X obj 673 164 ==;
#X connect 0 0 17 1;
#X connect 1 0 19 1;
#X connect 2 0 18 1;
#X connect 3 0 20 1;
#X connect 4 0 22 1;
#X connect 5 0 24 1;
#X connect 6 0 23 1;
#X connect 7 0 25 1;
#X connect 8 0 26 1;
#X connect 9 0 28 1;
#X connect 10 0 27 1;
#X connect 11 0 29 1;
#X connect 12 0 30 1;
#X connect 13 0 32 1;
#X connect 14 0 31 1;
#X connect 15 0 33 1;
#X connect 16 0 20 0;
#X connect 16 0 19 0;
#X connect 16 0 18 0;
#X connect 16 0 17 0;
#X connect 16 0 22 0;
#X connect 16 0 23 0;
#X connect 16 0 24 0;
#X connect 16 0 25 0;
#X connect 16 0 26 0;
#X connect 16 0 27 0;
#X connect 16 0 28 0;
#X connect 16 0 29 0;
#X connect 16 0 30 0;
#X connect 16 0 31 0;
#X connect 16 0 32 0;
#X connect 16 0 33 0;
#X connect 17 0 21 1;
#X connect 17 0 21 0;
#X connect 18 0 21 1;
#X connect 18 0 21 0;
#X connect 19 0 21 1;
#X connect 19 0 21 0;
#X connect 20 0 21 1;
#X connect 20 0 21 0;
#X connect 22 0 21 1;
#X connect 22 0 21 0;
#X connect 23 0 21 1;
#X connect 23 0 21 0;
#X connect 24 0 21 1;
#X connect 24 0 21 0;
#X connect 25 0 21 1;
#X connect 25 0 21 0;
#X connect 26 0 21 1;
#X connect 26 0 21 0;
#X connect 27 0 21 1;
#X connect 27 0 21 0;
#X connect 28 0 21 1;
#X connect 28 0 21 0;
#X connect 29 0 21 1;
#X connect 29 0 21 0;
#X connect 30 0 21 1;
#X connect 30 0 21 0;
#X connect 31 0 21 1;
#X connect 31 0 21 0;
#X connect 32 0 21 1;
#X connect 32 0 21 0;
#X connect 33 0 21 1;
#X connect 33 0 21 0;
#X restore 649 313 pd x0x Template;
#X text 560 293 Step Sequencer Template for additional sounds;
#N canvas 476 256 875 250 CB 0;
#X obj 17 3 tgl 15 0 empty empty empty 17 7 0 10 -260097 -1 -1 0 1
;
#X obj 47 3 tgl 15 0 empty empty empty 17 7 0 10 -262144 -1 -1 0 3
;
#X obj 32 3 tgl 15 0 empty empty empty 17 7 0 10 -262144 -1 -1 0 2
;
#X obj 62 3 tgl 15 0 empty empty empty 17 7 0 10 -262144 -1 -1 0 4
;
#X obj 77 3 tgl 15 0 empty empty empty 17 7 0 10 -260097 -1 -1 0 5
;
#X obj 107 3 tgl 15 0 empty empty empty 17 7 0 10 -262144 -1 -1 0 7
;
#X obj 92 3 tgl 15 0 empty empty empty 17 7 0 10 -262144 -1 -1 0 6
;
#X obj 122 3 tgl 15 0 empty empty empty 17 7 0 10 -262144 -1 -1 0 8
;
#X obj 137 3 tgl 15 0 empty empty empty 17 7 0 10 -260097 -1 -1 0 9
;
#X obj 167 3 tgl 15 0 empty empty empty 17 7 0 10 -262144 -1 -1 0 11
;
#X obj 152 3 tgl 15 0 empty empty empty 17 7 0 10 -262144 -1 -1 0 10
;
#X obj 182 3 tgl 15 0 empty empty empty 17 7 0 10 -262144 -1 -1 0 12
;
#X obj 197 3 tgl 15 0 empty empty empty 17 7 0 10 -260097 -1 -1 0 13
;
#X obj 227 3 tgl 15 0 empty empty empty 17 7 0 10 -262144 -1 -1 0 15
;
#X obj 212 3 tgl 15 0 empty empty empty 17 7 0 10 -262144 -1 -1 0 14
;
#X obj 242 3 tgl 15 0 empty empty empty 17 7 0 10 -262144 -1 -1 0 16
;
#X obj 321 -34 + 1;
#X obj 290 15 ==;
#X obj 315 15 ==;
#X obj 340 15 ==;
#X obj 365 15 ==;
#X obj 295 56 spigot;
#X obj 391 15 ==;
#X obj 416 15 ==;
#X obj 441 15 ==;
#X obj 466 15 ==;
#X obj 490 15 ==;
#X obj 515 15 ==;
#X obj 540 15 ==;
#X obj 565 15 ==;
#X obj 591 15 ==;
#X obj 616 15 ==;
#X obj 641 15 ==;
#X obj 666 15 ==;
#X obj 321 -63 r count;
#X obj 295 89 s AC;
#X text 0 1 Ac;
#X connect 0 0 17 1;
#X connect 1 0 19 1;
#X connect 2 0 18 1;
#X connect 3 0 20 1;
#X connect 4 0 22 1;
#X connect 5 0 24 1;
#X connect 6 0 23 1;
#X connect 7 0 25 1;
#X connect 8 0 26 1;
#X connect 9 0 28 1;
#X connect 10 0 27 1;
#X connect 11 0 29 1;
#X connect 12 0 30 1;
#X connect 13 0 32 1;
#X connect 14 0 31 1;
#X connect 15 0 33 1;
#X connect 16 0 20 0;
#X connect 16 0 19 0;
#X connect 16 0 18 0;
#X connect 16 0 17 0;
#X connect 16 0 22 0;
#X connect 16 0 23 0;
#X connect 16 0 24 0;
#X connect 16 0 25 0;
#X connect 16 0 26 0;
#X connect 16 0 27 0;
#X connect 16 0 28 0;
#X connect 16 0 29 0;
#X connect 16 0 30 0;
#X connect 16 0 31 0;
#X connect 16 0 32 0;
#X connect 16 0 33 0;
#X connect 17 0 21 1;
#X connect 17 0 21 0;
#X connect 18 0 21 1;
#X connect 18 0 21 0;
#X connect 19 0 21 1;
#X connect 19 0 21 0;
#X connect 20 0 21 1;
#X connect 20 0 21 0;
#X connect 21 0 35 0;
#X connect 22 0 21 1;
#X connect 22 0 21 0;
#X connect 23 0 21 1;
#X connect 23 0 21 0;
#X connect 24 0 21 1;
#X connect 24 0 21 0;
#X connect 25 0 21 1;
#X connect 25 0 21 0;
#X connect 26 0 21 1;
#X connect 26 0 21 0;
#X connect 27 0 21 1;
#X connect 27 0 21 0;
#X connect 28 0 21 1;
#X connect 28 0 21 0;
#X connect 29 0 21 1;
#X connect 29 0 21 0;
#X connect 30 0 21 1;
#X connect 30 0 21 0;
#X connect 31 0 21 1;
#X connect 31 0 21 0;
#X connect 32 0 21 1;
#X connect 32 0 21 0;
#X connect 33 0 21 1;
#X connect 33 0 21 0;
#X connect 34 0 16 0;
#X coords 0 -1 1 1 260 20 2 0 0;
#X restore 125 370 pd CB Logic;
#N canvas 757 249 450 300 alternate 0;
#X obj 176 34 inlet;
#X obj 136 260 outlet;
#X obj 205 264 outlet;
#X obj 188 85 bng 15 250 50 0 empty empty empty 17 7 0 10 -262144 -1
-1;
#X obj 180 155 mod 2;
#X obj 190 119 + 1;
#X obj 157 119 f;
#X obj 175 185 sel 0;
#X obj 161 232 bng 15 250 50 0 empty empty empty 17 7 0 10 -262144
-1 -1;
#X obj 193 228 bng 15 250 50 0 empty empty empty 17 7 0 10 -262144
-1 -1;
#X connect 0 0 3 0;
#X connect 3 0 6 0;
#X connect 4 0 7 0;
#X connect 5 0 6 1;
#X connect 5 0 4 0;
#X connect 6 0 5 0;
#X connect 7 0 8 0;
#X connect 7 1 9 0;
#X connect 8 0 1 0;
#X connect 9 0 2 0;
#X restore 428 139 pd alternate;
#N canvas 478 251 875 250 CB 0;
#X obj 17 3 tgl 15 1 empty empty empty 17 7 0 10 -260097 -1 -1 1 1
;
#X obj 47 3 tgl 15 1 empty empty empty 17 7 0 10 -262144 -1 -1 3 3
;
#X obj 32 3 tgl 15 0 empty empty empty 17 7 0 10 -262144 -1 -1 0 2
;
#X obj 62 3 tgl 15 0 empty empty empty 17 7 0 10 -262144 -1 -1 0 4
;
#X obj 77 3 tgl 15 0 empty empty empty 17 7 0 10 -260097 -1 -1 0 5
;
#X obj 107 3 tgl 15 1 empty empty empty 17 7 0 10 -262144 -1 -1 7 7
;
#X obj 92 3 tgl 15 1 empty empty empty 17 7 0 10 -262144 -1 -1 6 6
;
#X obj 122 3 tgl 15 1 empty empty empty 17 7 0 10 -262144 -1 -1 8 8
;
#X obj 137 3 tgl 15 0 empty empty empty 17 7 0 10 -260097 -1 -1 0 9
;
#X obj 167 3 tgl 15 1 empty empty empty 17 7 0 10 -262144 -1 -1 11
11;
#X obj 152 3 tgl 15 0 empty empty empty 17 7 0 10 -262144 -1 -1 0 10
;
#X obj 182 3 tgl 15 0 empty empty empty 17 7 0 10 -262144 -1 -1 0 12
;
#X obj 197 3 tgl 15 0 empty empty empty 17 7 0 10 -260097 -1 -1 0 13
;
#X obj 227 3 tgl 15 0 empty empty empty 17 7 0 10 -262144 -1 -1 0 15
;
#X obj 212 3 tgl 15 0 empty empty empty 17 7 0 10 -262144 -1 -1 0 14
;
#X obj 242 3 tgl 15 0 empty empty empty 17 7 0 10 -262144 -1 -1 0 16
;
#X obj 321 -34 + 1;
#X obj 290 15 ==;
#X obj 315 15 ==;
#X obj 340 15 ==;
#X obj 365 15 ==;
#X obj 295 56 spigot;
#X obj 391 15 ==;
#X obj 416 15 ==;
#X obj 441 15 ==;
#X obj 466 15 ==;
#X obj 490 15 ==;
#X obj 515 15 ==;
#X obj 540 15 ==;
#X obj 565 15 ==;
#X obj 591 15 ==;
#X obj 616 15 ==;
#X obj 641 15 ==;
#X obj 666 15 ==;
#X obj 321 -63 r count;
#X text 0 1 PD;
#X obj 295 90 s PAD;
#X connect 0 0 17 1;
#X connect 1 0 19 1;
#X connect 2 0 18 1;
#X connect 3 0 20 1;
#X connect 4 0 22 1;
#X connect 5 0 24 1;
#X connect 6 0 23 1;
#X connect 7 0 25 1;
#X connect 8 0 26 1;
#X connect 9 0 28 1;
#X connect 10 0 27 1;
#X connect 11 0 29 1;
#X connect 12 0 30 1;
#X connect 13 0 32 1;
#X connect 14 0 31 1;
#X connect 15 0 33 1;
#X connect 16 0 20 0;
#X connect 16 0 19 0;
#X connect 16 0 18 0;
#X connect 16 0 17 0;
#X connect 16 0 22 0;
#X connect 16 0 23 0;
#X connect 16 0 24 0;
#X connect 16 0 25 0;
#X connect 16 0 26 0;
#X connect 16 0 27 0;
#X connect 16 0 28 0;
#X connect 16 0 29 0;
#X connect 16 0 30 0;
#X connect 16 0 31 0;
#X connect 16 0 32 0;
#X connect 16 0 33 0;
#X connect 17 0 21 1;
#X connect 17 0 21 0;
#X connect 18 0 21 1;
#X connect 18 0 21 0;
#X connect 19 0 21 1;
#X connect 19 0 21 0;
#X connect 20 0 21 1;
#X connect 20 0 21 0;
#X connect 21 0 36 0;
#X connect 22 0 21 1;
#X connect 22 0 21 0;
#X connect 23 0 21 1;
#X connect 23 0 21 0;
#X connect 24 0 21 1;
#X connect 24 0 21 0;
#X connect 25 0 21 1;
#X connect 25 0 21 0;
#X connect 26 0 21 1;
#X connect 26 0 21 0;
#X connect 27 0 21 1;
#X connect 27 0 21 0;
#X connect 28 0 21 1;
#X connect 28 0 21 0;
#X connect 29 0 21 1;
#X connect 29 0 21 0;
#X connect 30 0 21 1;
#X connect 30 0 21 0;
#X connect 31 0 21 1;
#X connect 31 0 21 0;
#X connect 32 0 21 1;
#X connect 32 0 21 0;
#X connect 33 0 21 1;
#X connect 33 0 21 0;
#X connect 34 0 16 0;
#X coords 0 -1 1 1 260 20 2 0 0;
#X restore 120 321 pd CB Logic;
#N canvas 693 318 450 300 metrum 0;
#X obj 183 104 tgl 13 0 empty empty empty 0 -6 0 8 -233017 -1 -1 1
1;
#X obj 184 239 outlet;
#X obj 199 104 nbx 4 13 1 1e+37 0 0 empty empty empty 0 -6 0 10 -233017
-1 -1 121 256;
#X obj 184 219 metro;
#X obj 179 42 loadbang;
#X obj 204 82 \$1;
#X obj 179 62 t b b;
#X obj 179 82 \$2;
#X obj 219 62 inlet;
#X obj 139 62 inlet;
#X obj 234 239 outlet;
#N canvas 0 22 426 446 license 0;
#X text 8 47 All rights reserved.;
#X text 8 227 The names of its contributors may not be used to endorse
or promote products derived from this software without specific prior
written permission.;
#X text 8 87 Redistribution and use in source and binary forms \, with
or without modification \, are permitted provided that the following
conditions are met:;
#X text 8 127 Redistributions of source code must retain the above
copyright notice \, this list of conditions and the following disclaimer.
;
#X text 8 297 THIS SOFTWARE IS PROVIDED BY THE COPYRIGHT HOLDERS AND
CONTRIBUTORS "AS IS" AND ANY EXPRESS OR IMPLIED WARRANTIES \, INCLUDING
\, BUT NOT LIMITED TO \, THE IMPLIED WARRANTIES OF MERCHANTABILITY
AND FITNESS FOR A PARTICULAR PURPOSE ARE DISCLAIMED. IN NO EVENT SHALL
THE COPYRIGHT OWNER OR CONTRIBUTORS BE LIABLE FOR ANY DIRECT \, INDIRECT
\, INCIDENTAL \, SPECIAL \, EXEMPLARY \, OR CONSEQUENTIAL DAMAGES (INCLUDING
\, BUT NOT LIMITED TO \, PROCUREMENT OF SUBSTITUTE GOODS OR SERVICES
;
#X text 8 167 Redistributions in binary form must reproduce the above
copyright notice \, this list of conditions and the following disclaimer
in the documentation and/or other materials provided with the distribution.
;
#X text 8 27 jmmmpais@googlemail.com;
#X text 8 7 Copyright 2006 \, João Pais;
#X restore 109 305 pd license;
#X text 299 102 Inlets;
#X text 299 122 - On / Off;
#X text 299 172 Outlets;
#X text 299 192 - Bang;
#X text 299 32 Arguments;
#X text 299 72 - Initial state (0/1);
#X text 105 12 [metrum] - Metro with GUI;
#X text 106 275 (C) 2006 João Pais - jmmmpais@googlemail.com modified
by Paul Tsnobiladze;
#X text 299 52 - BPM;
#X text 299 142 - BPM;
#X text 299 212 - BPM;
#X obj 235 190 /;
#X obj 198 127 t b f;
#X msg 197 162 15000;
#X connect 0 0 3 0;
#X connect 2 0 24 0;
#X connect 3 0 1 0;
#X connect 4 0 6 0;
#X connect 5 0 2 0;
#X connect 6 0 7 0;
#X connect 6 1 5 0;
#X connect 7 0 0 0;
#X connect 8 0 5 0;
#X connect 9 0 7 0;
#X connect 23 0 3 1;
#X connect 23 0 10 0;
#X connect 24 0 25 0;
#X connect 24 1 23 1;
#X connect 25 0 23 0;
#X coords 0 -1 1 1 150 20 1 100 100;
#X restore 127 116 pd metrum;
#X msg 598 172 16;
#X obj 474 292 nbx 5 14 -1e+37 1e+37 0 0 empty empty empty 0 -8 0 10
-262144 -1 -1 9 256;
#N canvas 0 22 450 300 count 0;
#X obj 63 144 f 0;
#X obj 64 180 + 1;
#X msg 75 108 0;
#X obj 41 246 outlet;
#X obj 44 66 route reset;
#X msg 13 109 bang;
#X obj 33 28 inlet;
#X obj 139 25 inlet;
#X obj 99 144 mod;
#X connect 0 0 1 0;
#X connect 0 0 3 0;
#X connect 1 0 8 0;
#X connect 2 0 0 1;
#X connect 4 0 2 0;
#X connect 4 1 5 0;
#X connect 5 0 0 0;
#X connect 6 0 4 0;
#X connect 7 0 8 1;
#X connect 8 0 0 1;
#X restore 437 202 pd count;
#X obj 585 150 loadbang;
#X obj -7 59 r startInstruments;
#X obj 250 62 r bpm;
#X connect 1 0 2 0;
#X connect 2 0 26 0;
#X connect 3 0 5 0;
#X connect 3 0 1 1;
#X connect 4 0 3 0;
#X connect 15 0 3 0;
#X connect 15 0 21 0;
#X connect 16 0 3 1;
#X connect 17 0 0 0;
#X connect 21 0 2 0;
#X connect 21 1 1 0;
#X connect 23 0 13 0;
#X connect 23 1 14 0;
#X connect 24 0 26 1;
#X connect 26 0 12 0;
#X connect 26 0 25 0;
#X connect 27 0 24 0;
#X connect 28 0 23 0;
#X connect 29 0 23 1;
#X coords 0 -1 1 1 300 250 1 100 100;
#X restore 362 41 pd Sequencer;
#N canvas 215 339 450 300 WB 0;
#X obj -132 13 bp~ 500 5;
#X obj -40 13 bp~ 222 5;
#X obj 55 12 bp~ 1000 5;
#X obj -132 82 *~;
#X obj -117 60 vline~;
#X msg -117 37 1 1 \, 0 20 1;
#X obj -40 84 *~;
#X obj -26 60 vline~;
#X obj 54 82 *~;
#X obj 69 60 vline~;
#X msg -26 39 0.5 1 \, 0 45 1;
#X msg 69 37 1 1 \, 0 5 1;
#X obj 164 24 bng 15 250 50 0 empty empty empty 17 7 0 10 -262144 -1
-1;
#X obj -181 -4 noise~;
#X obj -47 124 *~ 8;
#X obj -46 150 *~;
#X obj 175 -10 r WB;
#X obj -46 175 s~ WB;
#X obj 112 137 hsl 60 15 0 1 0 1 empty empty Volume -2 -8 0 10 -262144
-1 -1 2400 1;
#X connect 0 0 3 0;
#X connect 1 0 6 0;
#X connect 2 0 8 0;
#X connect 3 0 14 0;
#X connect 4 0 3 1;
#X connect 5 0 4 0;
#X connect 6 0 14 0;
#X connect 7 0 6 1;
#X connect 8 0 14 0;
#X connect 9 0 8 1;
#X connect 10 0 7 0;
#X connect 11 0 9 0;
#X connect 12 0 5 0;
#X connect 12 0 10 0;
#X connect 12 0 11 0;
#X connect 13 0 0 0;
#X connect 13 0 1 0;
#X connect 13 0 2 0;
#X connect 14 0 15 0;
#X connect 15 0 17 0;
#X connect 16 0 12 0;
#X connect 18 0 15 1;
#X coords 0 -1 1 1 85 60 1 100 100;
#X restore 1025 41 pd WB;
#X obj 818 379 r~ PAD;
#N canvas 1046 374 494 424 PD 0;
#X obj 23 83 bng 15 250 50 0 empty empty empty 17 7 0 10 -262144 -1
-1;
#X obj -7 165 *~ 8;
#X obj -6 191 *~;
#X obj 114 134 hsl 60 15 0 1 0 0 empty empty Volume -2 -8 0 10 -262144
-1 -1 4720 1;
#X obj 20 43 r PAD;
#X obj -8 260 s~ PAD;
#X floatatom 118 177 5 0 0 0 - - -;
#N canvas 0 22 692 767 pad 0;
#X obj 306 87 + 3;
#X obj 353 88 + 7;
#X obj 261 84 + 0;
#X obj 294 -20 inlet;
#X obj 261 118 mtof;
#X obj 304 117 mtof;
#X obj 354 117 mtof;
#X obj 261 152 phasor~;
#X obj 303 181 phasor~;
#X obj 378 184 phasor~;
#X obj 342 449 +~;
#X obj 343 514 /~ 3;
#N canvas 367 480 466 316 oline 0;
#X obj 102 35 inlet;
#X obj 102 77 pack f \$1;
#X obj 101 110 line;
#X obj 101 157 outlet;
#X connect 0 0 1 0;
#X connect 1 0 2 0;
#X connect 2 0 3 0;
#X restore 195 181 pd oline 1000;
#N canvas 367 480 462 312 oline 0;
#X obj 102 35 inlet;
#X obj 102 77 pack f \$1;
#X obj 101 110 line;
#X obj 101 157 outlet;
#X connect 0 0 1 0;
#X connect 1 0 2 0;
#X connect 2 0 3 0;
#X restore 343 280 pd oline 1000;
#N canvas 367 480 462 312 oline 0;
#X obj 102 35 inlet;
#X obj 102 77 pack f \$1;
#X obj 101 110 line;
#X obj 101 157 outlet;
#X connect 0 0 1 0;
#X connect 1 0 2 0;
#X connect 2 0 3 0;
#X restore 418 339 pd oline 1000;
#N canvas 367 480 474 324 oline~ 0;
#X obj 102 35 inlet;
#X obj 101 110 vline~;
#X obj 102 157 outlet~;
#X obj 102 77 pack f 500;
#X connect 0 0 3 0;
#X connect 1 0 2 0;
#X connect 3 0 1 0;
#X restore 534 402 pd oline~ 1000;
#X obj 477 544 vcf~ 24;
#X obj 534 488 *~ 0.333333;
#X obj 462 454 phasor~;
#X obj 461 423 /~ 4;
#X obj 302 314 bp~ 1000 10;
#X obj 261 237 bp~ 1000 10;
#X obj 376 370 bp~ 1000 10;
#X obj 101 330 vline~;
#X obj 113 229 delay 500;
#X obj 391 697 outlet~;
#X obj 390 664 *~;
#X obj 100 370 *~;
#X msg 86 163 0.5 \, 1 250;
#X msg 134 280 1 \, 0 2000;
#X obj 218 -13 inlet;
#X obj 292 50 nbx 5 14 -1e+37 1e+37 0 0 empty empty empty 0 -8 0 10
-262144 -1 -1 61 256;
#X obj 295 24 f;
#X connect 0 0 5 0;
#X connect 1 0 6 0;
#X connect 2 0 4 0;
#X connect 3 0 32 1;
#X connect 4 0 7 0;
#X connect 4 0 12 0;
#X connect 4 0 15 0;
#X connect 4 0 19 0;
#X connect 5 0 8 0;
#X connect 5 0 13 0;
#X connect 6 0 9 0;
#X connect 6 0 14 0;
#X connect 7 0 21 0;
#X connect 8 0 20 0;
#X connect 9 0 22 0;
#X connect 10 0 11 0;
#X connect 11 0 26 0;
#X connect 12 0 21 1;
#X connect 13 0 20 1;
#X connect 14 0 22 1;
#X connect 15 0 17 0;
#X connect 16 0 26 0;
#X connect 17 0 16 1;
#X connect 18 0 16 0;
#X connect 19 0 18 0;
#X connect 20 0 10 0;
#X connect 21 0 10 0;
#X connect 22 0 10 0;
#X connect 23 0 27 0;
#X connect 23 0 27 1;
#X connect 24 0 29 0;
#X connect 26 0 25 0;
#X connect 27 0 26 1;
#X connect 28 0 23 0;
#X connect 28 0 24 0;
#X connect 29 0 23 0;
#X connect 30 0 32 0;
#X connect 31 0 28 0;
#X connect 31 0 2 0;
#X connect 31 0 0 0;
#X connect 31 0 1 0;
#X connect 32 0 31 0;
#X restore 23 130 pd pad;
#X obj 197 141 r padPitch;
#X obj 112 26 loadbang;
#X msg 127 65 0.8;
#X connect 0 0 7 0;
#X connect 1 0 2 0;
#X connect 2 0 5 0;
#X connect 3 0 2 1;
#X connect 4 0 0 0;
#X connect 6 0 7 1;
#X connect 7 0 1 0;
#X connect 8 0 6 0;
#X connect 9 0 10 0;
#X connect 10 0 3 0;
#X coords 0 -1 1 1 85 100 1 100 100;
#X restore 1088 153 pd PD;
#N canvas 282 40 541 623 record 0;
#X obj 86 5 writesf~ 2;
#X msg -45 -95 start;
#X msg 78 -104 stop;
#X obj 22 -207 r countRecord;
#X msg 22 -143 open \$1;
#X obj 22 -175 makefilename /mnt/sdcard/pd_record/pd_record_%d.wav
;
#N canvas 419 250 450 300 timer 0;
#X obj 165 52 inlet;
#X text 163 23 start;
#X obj 256 45 inlet;
#X text 255 28 stop;
#X obj 157 199 outlet;
#X text 154 226 minutes;
#X obj 269 203 outlet;
#X text 267 227 seconds;
#X obj 343 70 inlet;
#X text 342 46 reset;
#N canvas 94 228 450 300 counter 0;
#X obj 84 130 inlet;
#X obj 120 184 f;
#X obj 190 191 + 1;
#X floatatom 120 242 5 0 0 0 - - -;
#X obj 190 213 mod 60;
#X obj 120 269 outlet;
#X msg 226 164 0;
#X obj 226 137 inlet;
#X text 225 115 reset;
#X text 83 98 start;
#X obj 120 161 metro 1000;
#X msg 127 131 stop;
#X obj 127 97 inlet;
#X text 127 73 stop;
#X connect 0 0 10 0;
#X connect 1 0 2 0;
#X connect 1 0 3 0;
#X connect 2 0 4 0;
#X connect 3 0 5 0;
#X connect 4 0 1 1;
#X connect 6 0 1 1;
#X connect 7 0 6 0;
#X connect 10 0 1 0;
#X connect 11 0 10 0;
#X connect 12 0 11 0;
#X restore 269 164 pd counter sec;
#N canvas 295 198 450 300 counter 0;
#X obj 120 127 inlet;
#X obj 120 184 f;
#X obj 190 191 + 1;
#X floatatom 120 242 5 0 0 0 - - -;
#X obj 190 213 mod 60;
#X obj 120 269 outlet;
#X msg 226 164 0;
#X obj 226 137 inlet;
#X text 225 115 reset;
#X text 119 95 start;
#X msg 172 133 stop;
#X obj 172 98 inlet;
#X text 172 74 stop;
#X obj 120 161 metro 60000;
#X connect 0 0 13 0;
#X connect 1 0 2 0;
#X connect 1 0 3 0;
#X connect 2 0 4 0;
#X connect 3 0 5 0;
#X connect 4 0 1 1;
#X connect 6 0 1 1;
#X connect 7 0 6 0;
#X connect 10 0 13 0;
#X connect 11 0 10 0;
#X connect 13 0 1 0;
#X restore 156 164 pd counter min;
#X connect 0 0 10 0;
#X connect 0 0 11 0;
#X connect 2 0 10 1;
#X connect 2 0 11 1;
#X connect 8 0 10 2;
#X connect 8 0 11 2;
#X connect 10 0 6 0;
#X connect 11 0 4 0;
#X restore 104 77 pd timer;
#X floatatom 149 129 5 0 0 0 - - -;
#X floatatom 104 130 5 0 0 0 - - -;
#X obj 149 158 s sec;
#X obj 104 159 s min;
#X obj 184 -47 r~ right;
#X obj 93 -46 r~ left;
#X obj -45 -127 r start_record;
#X obj 149 -127 r stop_record;
#X connect 1 0 0 0;
#X connect 2 0 0 0;
#X connect 3 0 5 0;
#X connect 4 0 0 0;
#X connect 5 0 4 0;
#X connect 6 0 8 0;
#X connect 6 1 7 0;
#X connect 7 0 9 0;
#X connect 8 0 10 0;
#X connect 11 0 0 1;
#X connect 12 0 0 0;
#X connect 13 0 1 0;
#X connect 13 0 6 0;
#X connect 14 0 2 0;
#X connect 14 0 6 2;
#X connect 14 0 6 1;
#X coords 0 -1 1 1 85 50 1 100 100;
#X restore 21 229 pd record;
#N canvas 51 134 643 534 output~ 0;
#X obj 96 29 hsl 60 23 0.01 1 1 0 \$0-v \$0-v volume 7 13 1 9 -245500
-13381 -1 3838 0;
#X obj 160 16 tgl 18 0 THIS_IS_HERE_TO_GET_RID_OF_THE_OUTLET \$0-dsp-toggle
dsp 2 9 1 9 -225271 -195568 -33289 1 1;
#N canvas 340 345 482 356 dsp 0;
#X obj 11 7 inlet;
#X obj 92 226 select 0 1;
#X msg 125 248 6;
#X obj 92 57 route dsp;
#X obj 92 36 receive pd;
#X obj 206 138 loadbang;
#X msg 11 220 dsp \$1;
#X obj 11 245 send pd;
#X msg 206 278 set \$1;
#X obj 206 174 value GLOBAL_PDDP_DSP;
#X msg 109 278 color \$1 20 12;
#X obj 180 309 send \$0-dsp-toggle;
#X obj 92 115 change;
#X msg 92 247 0;
#X connect 0 0 6 0;
#X connect 0 0 12 0;
#X connect 1 0 13 0;
#X connect 1 1 2 0;
#X connect 2 0 10 0;
#X connect 3 0 12 0;
#X connect 4 0 3 0;
#X connect 5 0 9 0;
#X connect 6 0 7 0;
#X connect 8 0 11 0;
#X connect 9 0 8 0;
#X connect 9 0 1 0;
#X connect 10 0 11 0;
#X connect 12 0 8 0;
#X connect 12 0 1 0;
#X connect 12 0 9 0;
#X connect 13 0 10 0;
#X restore 215 50 pd dsp logic;
#X obj 418 -66 inlet;
#X obj 160 34 bng 18 1000 50 0 THIS_IS_HERE_TO_GET_RID_OF_THE_OUTLET
\$0-MUTE_TOGGLE empty 0 9 2 8 -262144 -258699 -195568;
#X obj 294 -66 inlet~;
#X obj 189 205 line~;
#X obj 289 265 *~;
#X obj 310 356 dac~;
#X text 306 -46 audio in;
#X obj 357 -66 inlet~;
#X obj 351 264 *~;
#X obj 304 135 hip~ 3;
#X obj 366 135 hip~ 3;
#X obj 115 220 send pd;
#X msg 115 199 dsp 1;
#X obj 352 355 outlet~;
#X obj 252 355 outlet~;
#X obj 433 294 outlet;
#N canvas 679 297 361 328 mute 0;
#X obj 23 20 inlet;
#X obj 173 20 inlet;
#X obj 222 208 float;
#X obj 265 121 tgl 15 1 empty empty empty 17 7 0 10 -262144 -1 -1 1
1;
#X obj 222 162 spigot;
#X obj 172 41 trigger bang bang;
#X obj 254 263 outlet;
#X msg 274 208 0;
#X obj 274 163 select 0;
#X obj 127 64 bang;
#X msg 127 85 set 1;
#X obj 65 304 send \$0-MUTE_TOGGLE;
#X msg 65 283 color \$1 13 20;
#X obj 65 235 bang;
#X msg 65 255 0;
#X msg 98 255 3;
#X connect 0 0 2 1;
#X connect 0 0 9 0;
#X connect 1 0 5 0;
#X connect 2 0 6 0;
#X connect 2 0 13 0;
#X connect 3 0 4 1;
#X connect 3 0 8 0;
#X connect 4 0 2 0;
#X connect 5 0 4 0;
#X connect 5 1 3 0;
#X connect 7 0 6 0;
#X connect 8 0 7 0;
#X connect 8 0 15 0;
#X connect 9 0 10 0;
#X connect 9 0 13 0;
#X connect 10 0 3 0;
#X connect 12 0 11 0;
#X connect 13 0 14 0;
#X connect 14 0 12 0;
#X connect 15 0 12 0;
#X restore 189 78 pd mute;
#X obj 189 184 pack 0 50;
#X text 256 183 <-- make a ramp to avoid clicks or zipper noise;
#X msg 189 149 0;
#X obj 189 126 moses 0.011;
#X text 410 136 filter out DC;
#N canvas 0 22 450 300 limiter 0;
#X obj 76 312 *~;
#X obj 111 70 env~;
#X obj 111 92 dbtorms;
#X obj 76 47 inlet~;
#X obj 73 338 outlet~;
#X obj 220 310 *~;
#X obj 220 45 inlet~;
#X obj 217 336 outlet~;
#X msg 120 168 1 \$1;
#X obj 122 195 /;
#X obj 111 228 min 1;
#X obj 114 131 + 0.5;
#X obj 107 262 lop~ 5;
#X connect 0 0 4 0;
#X connect 1 0 2 0;
#X connect 2 0 11 0;
#X connect 3 0 1 0;
#X connect 3 0 0 0;
#X connect 5 0 7 0;
#X connect 6 0 5 0;
#X connect 6 0 1 0;
#X connect 8 0 9 0;
#X connect 9 0 10 0;
#X connect 10 0 12 0;
#X connect 11 0 8 0;
#X connect 12 0 0 1;
#X connect 12 0 5 1;
#X restore 288 313 pd limiter;
#X obj 75 -55 loadbang;
#X msg 42 -17 0.2;
#X obj 475 -66 inlet;
#X obj 514 13 t b;
#X obj 517 -12 sel 0;
#X obj 462 -18 sel 1;
#X obj 424 28 delay 2000;
#X msg 381 22 0;
#X msg 389 -12 1;
#X connect 0 0 15 0;
#X connect 0 0 19 0;
#X connect 0 0 18 0;
#X connect 0 0 23 0;
#X connect 1 0 2 0;
#X connect 3 0 0 0;
#X connect 4 0 19 1;
#X connect 5 0 12 0;
#X connect 6 0 11 0;
#X connect 6 0 7 0;
#X connect 7 0 25 0;
#X connect 10 0 13 0;
#X connect 11 0 25 1;
#X connect 12 0 7 1;
#X connect 13 0 11 1;
#X connect 15 0 14 0;
#X connect 19 0 0 0;
#X connect 19 0 23 0;
#X connect 20 0 6 0;
#X connect 22 0 20 0;
#X connect 23 0 22 0;
#X connect 23 1 20 0;
#X connect 25 0 17 0;
#X connect 25 0 8 0;
#X connect 25 1 8 1;
#X connect 25 1 16 0;
#X connect 26 0 27 0;
#X connect 27 0 0 0;
#X connect 27 0 23 0;
#X connect 28 0 31 0;
#X connect 28 0 30 0;
#X connect 29 0 32 0;
#X connect 30 0 29 0;
#X connect 31 0 34 0;
#X connect 32 0 33 0;
#X connect 33 0 1 0;
#X connect 34 0 1 0;
#X coords 0 -1 1 1 90 44 1 90 10;
#X restore 589 592 pd output~;
#N canvas 813 227 504 508 pan 0;
#X obj 107 126 hsl 128 20 0 1 0 1 empty empty pan_position 6 10 1 11
-262131 -1 -1 5300 0;
#N canvas 723 148 450 300 scale 0;
#X obj 61 57 inlet;
#X obj 156 62 inlet;
#X obj 204 63 inlet;
#X obj 250 61 inlet;
#X obj 295 61 inlet;
#X obj 197 485 outlet;
#X obj 128 280 *;
#X text 75 36 x;
#X text 152 37 xmin;
#X text 204 36 xmax;
#X text 245 37 ymin;
#X text 289 39 ymax;
#X obj 173 172 -;
#X obj 291 176 -;
#X obj 207 215 /;
#X text 187 258 a;
#X obj 222 317 +;
#X text 205 511 y;
#X text 317 464 y = a*x+b;
#X text 260 302 b;
#X floatatom 211 428 5 0 0 0 - - -;
#X floatatom 76 184 5 0 0 0 - - -;
#X floatatom 157 89 5 0 0 0 - - -;
#X floatatom 207 89 5 0 0 0 - - -;
#X floatatom 253 88 5 0 0 0 - - -;
#X floatatom 302 87 5 0 0 0 - - -;
#X obj 258 282 -;
#X obj 282 249 *;
#X obj 91 127 t b b b b;
#X connect 0 0 21 0;
#X connect 1 0 22 0;
#X connect 2 0 23 0;
#X connect 3 0 24 0;
#X connect 4 0 25 0;
#X connect 6 0 16 0;
#X connect 12 0 14 1;
#X connect 13 0 14 0;
#X connect 14 0 27 0;
#X connect 14 0 6 1;
#X connect 16 0 20 0;
#X connect 20 0 5 0;
#X connect 21 0 6 0;
#X connect 21 0 28 0;
#X connect 22 0 12 1;
#X connect 22 0 27 1;
#X connect 23 0 12 0;
#X connect 24 0 26 0;
#X connect 24 0 13 1;
#X connect 25 0 13 0;
#X connect 26 0 16 1;
#X connect 27 0 26 1;
#X connect 28 0 22 0;
#X connect 28 1 23 0;
#X connect 28 2 24 0;
#X connect 28 3 25 0;
#X restore 143 74 pd scale;
#X msg 217 38 0;
#X obj 187 4 t b b b b;
#X obj 165 -35 loadbang;
#N canvas 315 175 528 411 equal_power 0;
#X obj 33 48 inlet~;
#X obj 244 58 inlet;
#X obj 33 332 outlet~;
#X obj 91 332 outlet~;
#X text 40 352 left;
#X text 94 352 right;
#X obj 319 54 loadbang;
#X msg 319 74 0.5;
#X obj 49 194 expr cos($f1 * 3.14159 / 2);
#X obj 244 194 expr sin($f1 * 3.14159 / 2);
#X text 20 27 [equal_power_pan~];
#X obj 244 134 clip 0 1;
#N canvas 345 242 634 541 pan_core~ 0;
#X obj 21 106 inlet~;
#X obj 226 126 inlet;
#X obj 80 453 *~;
#X obj 80 482 outlet~;
#X obj 210 452 *~;
#X obj 210 481 outlet~;
#X text 87 502 left;
#X text 213 501 right;
#X obj 226 428 line~;
#X obj 96 428 line~;
#X obj 316 123 loadbang;
#X floatatom 339 357 7 0 0 3 blocksize_in_ms - -;
#X obj 287 152 bng 15 250 50 0 empty empty empty 0 -6 0 8 -262144 -1
-1;
#X obj 226 347 t f b;
#X obj 256 366 f;
#X obj 226 389 pack f f;
#X msg 226 409 \$1 \$2;
#X obj 96 347 t f b;
#X obj 126 366 f;
#X obj 96 389 pack f f;
#X msg 96 409 \$1 \$2;
#X obj 96 127 inlet;
#X text 20 27 [pan_core~];
#X obj 494 185 bang;
#X text 539 160 bang to recalculate;
#X obj 494 253 samplerate~;
#X obj 508 321 /;
#X msg 494 299 64;
#X obj 494 280 t b f;
#X text 360 299 default block size:;
#X obj 508 358 * 1000;
#X connect 0 0 2 0;
#X connect 0 0 4 0;
#X connect 1 0 13 0;
#X connect 2 0 3 0;
#X connect 4 0 5 0;
#X connect 8 0 4 1;
#X connect 9 0 2 1;
#X connect 10 0 23 0;
#X connect 12 0 23 0;
#X connect 13 0 15 0;
#X connect 13 1 14 0;
#X connect 14 0 15 1;
#X connect 15 0 16 0;
#X connect 16 0 8 0;
#X connect 17 0 19 0;
#X connect 17 1 18 0;
#X connect 18 0 19 1;
#X connect 19 0 20 0;
#X connect 20 0 9 0;
#X connect 21 0 17 0;
#X connect 23 0 25 0;
#X connect 25 0 28 0;
#X connect 26 0 30 0;
#X connect 27 0 26 0;
#X connect 28 0 27 0;
#X connect 28 1 26 1;
#X connect 30 0 11 0;
#X connect 30 0 14 1;
#X connect 30 0 18 1;
#X restore 42 269 pd pan_core~;
#X connect 0 0 12 0;
#X connect 1 0 11 0;
#X connect 6 0 7 0;
#X connect 7 0 11 0;
#X connect 8 0 12 1;
#X connect 9 0 12 2;
#X connect 11 0 8 0;
#X connect 11 0 9 0;
#X connect 12 0 2 0;
#X connect 12 1 3 0;
#X restore 53 189 pd equal_power;
#X obj 112 50 line;
#X obj 79 -28 t b f;
#X msg 93 4 100;
#X obj -16 131 inlet~;
#X obj 121 275 outlet~;
#X obj 15 274 outlet~;
#X obj 17 -53 inlet;
#X obj 255 38 1;
#X msg 154 40 8;
#X msg 183 39 -8;
#X connect 0 0 5 1;
#X connect 1 0 0 0;
#X connect 2 0 1 3;
#X connect 3 0 14 0;
#X connect 3 1 15 0;
#X connect 3 2 2 0;
#X connect 3 3 13 0;
#X connect 4 0 3 0;
#X connect 5 0 11 0;
#X connect 5 1 10 0;
#X connect 6 0 1 0;
#X connect 7 0 8 0;
#X connect 7 1 6 0;
#X connect 8 0 6 1;
#X connect 9 0 5 0;
#X connect 12 0 7 0;
#X connect 13 0 1 4;
#X connect 14 0 1 1;
#X connect 15 0 1 2;
#X coords 0 -1 1 1 140 50 1 100 100;
#X restore 730 461 pd pan;
#X obj 560 684 s~ left;
#X obj 625 683 s~ right;
#X obj 923 380 r acceleroX;
#X obj 33 361 r gsm;
#X obj 47 497 s bpm;
#X obj 223 346 r magnetic;
#X obj 295 552 s padPitch;
#N canvas 0 22 450 300 scale 0;
#X obj 61 57 inlet;
#X obj 156 62 inlet;
#X obj 204 63 inlet;
#X obj 250 61 inlet;
#X obj 295 61 inlet;
#X obj 197 485 outlet;
#X obj 128 280 *;
#X text 75 36 x;
#X text 152 37 xmin;
#X text 204 36 xmax;
#X text 245 37 ymin;
#X text 289 39 ymax;
#X obj 173 172 -;
#X obj 291 176 -;
#X obj 207 215 /;
#X text 187 258 a;
#X obj 222 317 +;
#X text 205 511 y;
#X text 317 464 y = a*x+b;
#X text 260 302 b;
#X floatatom 211 428 5 0 0 0 - - -;
#X floatatom 76 184 5 0 0 0 - - -;
#X floatatom 157 89 5 0 0 0 - - -;
#X floatatom 207 89 5 0 0 0 - - -;
#X floatatom 253 88 5 0 0 0 - - -;
#X floatatom 302 87 5 0 0 0 - - -;
#X obj 258 282 -;
#X obj 282 249 *;
#X obj 91 127 t b b b b;
#X obj 216 359 min;
#X obj 215 390 max;
#X connect 0 0 21 0;
#X connect 1 0 22 0;
#X connect 2 0 23 0;
#X connect 3 0 24 0;
#X connect 3 0 30 1;
#X connect 4 0 25 0;
#X connect 4 0 29 1;
#X connect 6 0 16 0;
#X connect 12 0 14 1;
#X connect 13 0 14 0;
#X connect 14 0 27 0;
#X connect 14 0 6 1;
#X connect 16 0 29 0;
#X connect 20 0 5 0;
#X connect 21 0 6 0;
#X connect 21 0 28 0;
#X connect 22 0 12 1;
#X connect 22 0 27 1;
#X connect 23 0 12 0;
#X connect 24 0 26 0;
#X connect 24 0 13 1;
#X connect 25 0 13 0;
#X connect 26 0 16 1;
#X connect 27 0 26 1;
#X connect 28 0 22 0;
#X connect 28 1 23 0;
#X connect 28 2 24 0;
#X connect 28 3 25 0;
#X connect 29 0 30 0;
#X connect 30 0 20 0;
#X restore 258 412 pd scale;
#X msg 324 381 45;
#X msg 259 383 40;
#X msg 291 383 150;
#X obj 302 352 loadbang;
#N canvas 0 22 450 300 scale 0;
#X obj 61 57 inlet;
#X obj 156 62 inlet;
#X obj 204 63 inlet;
#X obj 250 61 inlet;
#X obj 295 61 inlet;
#X obj 197 485 outlet;
#X obj 128 280 *;
#X text 75 36 x;
#X text 152 37 xmin;
#X text 204 36 xmax;
#X text 245 37 ymin;
#X text 289 39 ymax;
#X obj 173 172 -;
#X obj 291 176 -;
#X obj 207 215 /;
#X text 187 258 a;
#X obj 222 317 +;
#X text 205 511 y;
#X text 317 464 y = a*x+b;
#X text 260 302 b;
#X floatatom 211 428 5 0 0 0 - - -;
#X floatatom 76 184 5 0 0 0 - - -;
#X floatatom 157 89 5 0 0 0 - - -;
#X floatatom 207 89 5 0 0 0 - - -;
#X floatatom 253 88 5 0 0 0 - - -;
#X floatatom 302 87 5 0 0 0 - - -;
#X obj 258 282 -;
#X obj 282 249 *;
#X obj 91 127 t b b b b;
#X obj 216 359 min;
#X obj 215 390 max;
#X connect 0 0 21 0;
#X connect 1 0 22 0;
#X connect 2 0 23 0;
#X connect 3 0 24 0;
#X connect 3 0 30 1;
#X connect 4 0 25 0;
#X connect 4 0 29 1;
#X connect 6 0 16 0;
#X connect 12 0 14 1;
#X connect 13 0 14 0;
#X connect 14 0 27 0;
#X connect 14 0 6 1;
#X connect 16 0 29 0;
#X connect 20 0 5 0;
#X connect 21 0 6 0;
#X connect 21 0 28 0;
#X connect 22 0 12 1;
#X connect 22 0 27 1;
#X connect 23 0 12 0;
#X connect 24 0 26 0;
#X connect 24 0 13 1;
#X connect 25 0 13 0;
#X connect 26 0 16 1;
#X connect 27 0 26 1;
#X connect 28 0 22 0;
#X connect 28 1 23 0;
#X connect 28 2 24 0;
#X connect 28 3 25 0;
#X connect 29 0 30 0;
#X connect 30 0 20 0;
#X restore 50 450 pd scale;
#X obj 94 390 loadbang;
#X msg 51 421 0;
#X msg 83 421 31;
#X obj 825 616 tgl 15 0 empty empty empty 17 7 0 10 -262144 -1 -1 1
1;
#X obj 917 671 s startInstruments;
#X obj 825 592 r on_off;
#X msg 358 380 100;
#X obj 152 574 s highPitch;
#X obj 216 188 nbx 5 14 -1e+37 1e+37 0 0 empty empty empty 0 -8 0 10
-262144 -1 -1 72 256;
#X obj 214 250 s magnetic;
#X obj 473 492 s magnetic;
#X obj 469 435 nbx 5 14 -1e+37 1e+37 0 0 empty empty empty 0 -8 0 10
-262144 -1 -1 0 256;
#X obj 232 467 sel 100;
#X obj 332 441 nbx 5 14 -1e+37 1e+37 0 0 empty empty empty 0 -8 0 10
-262144 -1 -1 61 256;
#X msg 168 501 1;
#X msg 250 519 0;
#N canvas 0 22 450 300 beatdelay 0;
#X obj 26 93 inlet~;
#X obj 172 67 inlet;
#X obj 221 467 outlet~;
#X floatatom 189 143 5 0 0 0 - - -;
#X obj 29 15 hradio 12 1 1 8 empty empty 1/16 -25 6 0 8 -262144 -1
-1 5;
#X obj 188 162 pow -1;
#X obj 254 156 + 1;
#X obj 188 185 / 4;
#X obj 201 208 *;
#X obj 212 236 * 60000;
#X obj 14 182 +~;
#X obj 55 155 *~;
#X obj 28 34 hsl 96 8 0 0.95 0 1 empty empty fb -16 5 0 8 -262144 -1
-1 9500 1;
#X text 215 66 <- bpm in;
#X obj 180 8 loadbang;
#X floatatom 255 127 5 0 0 0 - - -;
#X obj 124 95 t b b;
#X text 3 270 <- unique name for delayline! ->;
#X obj 28 46 hsl 96 8 20 5000 1 1 empty empty frq -20 5 0 8 -262144
-1 -1 3400 1;
#X obj 128 179 vcf~ 1;
#X text 201 35 beatsynced delay with filtered feedback;
#X obj 78 129 hip~ 100;
#X obj -131 267 delwrite~ \$0fbdl1 2000;
#X obj 231 274 delread~ \$0fbdl1;
#X obj 28 58 hsl 96 8 1 5 0 1 empty empty dis -20 4 0 8 -262144 -1
-1 9500 1;
#X obj 224 406 /~;
#X obj 252 347 abs~;
#X obj 231 300 *~;
#X obj 251 373 +~ 0.75;
#X obj -83 18 r dis;
#X connect 0 0 10 0;
#X connect 1 0 3 0;
#X connect 3 0 5 0;
#X connect 4 0 15 0;
#X connect 4 0 16 0;
#X connect 5 0 7 0;
#X connect 6 0 8 1;
#X connect 7 0 8 0;
#X connect 8 0 9 0;
#X connect 9 0 23 0;
#X connect 10 0 22 0;
#X connect 11 0 10 1;
#X connect 12 0 11 1;
#X connect 14 0 16 0;
#X connect 15 0 6 0;
#X connect 16 0 3 0;
#X connect 16 1 15 0;
#X connect 18 0 19 1;
#X connect 19 0 21 0;
#X connect 21 0 11 0;
#X connect 23 0 27 0;
#X connect 24 0 27 1;
#X connect 25 0 19 0;
#X connect 25 0 2 0;
#X connect 26 0 28 0;
#X connect 27 0 25 0;
#X connect 27 0 26 0;
#X connect 28 0 25 1;
#X connect 29 0 24 0;
#X coords 0 -1 1 1 130 75 1 0 0;
#X restore 937 450 pd beatdelay;
#X obj 1037 399 r tempo;
#N canvas 0 22 450 300 scale 0;
#X obj 61 57 inlet;
#X obj 156 62 inlet;
#X obj 204 63 inlet;
#X obj 250 61 inlet;
#X obj 295 61 inlet;
#X obj 197 485 outlet;
#X obj 128 280 *;
#X text 75 36 x;
#X text 152 37 xmin;
#X text 204 36 xmax;
#X text 245 37 ymin;
#X text 289 39 ymax;
#X obj 173 172 -;
#X obj 291 176 -;
#X obj 207 215 /;
#X text 187 258 a;
#X obj 222 317 +;
#X text 205 511 y;
#X text 317 464 y = a*x+b;
#X text 260 302 b;
#X floatatom 211 428 5 0 0 0 - - -;
#X floatatom 76 184 5 0 0 0 - - -;
#X floatatom 157 89 5 0 0 0 - - -;
#X floatatom 207 89 5 0 0 0 - - -;
#X floatatom 253 88 5 0 0 0 - - -;
#X floatatom 302 87 5 0 0 0 - - -;
#X obj 258 282 -;
#X obj 282 249 *;
#X obj 91 127 t b b b b;
#X obj 216 359 min;
#X obj 215 390 max;
#X connect 0 0 21 0;
#X connect 1 0 22 0;
#X connect 2 0 23 0;
#X connect 3 0 24 0;
#X connect 3 0 30 1;
#X connect 4 0 25 0;
#X connect 4 0 29 1;
#X connect 6 0 16 0;
#X connect 12 0 14 1;
#X connect 13 0 14 0;
#X connect 14 0 27 0;
#X connect 14 0 6 1;
#X connect 16 0 29 0;
#X connect 20 0 5 0;
#X connect 21 0 6 0;
#X connect 21 0 28 0;
#X connect 22 0 12 1;
#X connect 22 0 27 1;
#X connect 23 0 12 0;
#X connect 24 0 26 0;
#X connect 24 0 13 1;
#X connect 25 0 13 0;
#X connect 26 0 16 1;
#X connect 27 0 26 1;
#X connect 28 0 22 0;
#X connect 28 1 23 0;
#X connect 28 2 24 0;
#X connect 28 3 25 0;
#X connect 29 0 30 0;
#X connect 30 0 20 0;
#X restore 84 684 pd scale;
#X obj 128 624 loadbang;
#X obj 67 595 r wifi;
#X msg 85 655 -80;
#X msg 117 655 -60;
#X obj 81 731 s dis;
#X msg 150 418 150;
#X msg 149 653 1;
#X msg 115 419 80;
#X msg 183 653 5;
#X obj 887 548 *~ 1;
#X connect 4 0 15 0;
#X connect 4 0 15 1;
#X connect 5 0 4 0;
#X connect 5 0 46 0;
#X connect 6 0 4 0;
#X connect 6 0 46 0;
#X connect 7 0 4 0;
#X connect 8 0 4 0;
#X connect 8 0 46 0;
#X connect 9 0 4 0;
#X connect 9 0 46 0;
#X connect 12 0 16 0;
#X connect 15 0 17 0;
#X connect 15 1 18 0;
#X connect 16 0 15 0;
#X connect 16 1 15 1;
#X connect 19 0 16 1;
#X connect 20 0 29 0;
#X connect 22 0 24 0;
#X connect 24 0 42 0;
#X connect 24 0 43 0;
#X connect 25 0 24 3;
#X connect 26 0 24 1;
#X connect 27 0 24 2;
#X connect 28 0 26 0;
#X connect 28 0 27 0;
#X connect 28 0 25 0;
#X connect 28 0 36 0;
#X connect 29 0 21 0;
#X connect 30 0 31 0;
#X connect 30 0 32 0;
#X connect 30 0 56 0;
#X connect 30 0 54 0;
#X connect 31 0 29 1;
#X connect 32 0 29 2;
#X connect 33 0 34 0;
#X connect 33 0 15 3;
#X connect 35 0 33 0;
#X connect 36 0 24 4;
#X connect 38 0 39 0;
#X connect 41 0 40 0;
#X connect 42 0 44 0;
#X connect 42 1 23 0;
#X connect 42 1 45 0;
#X connect 44 0 37 0;
#X connect 45 0 37 0;
#X connect 46 0 58 0;
#X connect 47 0 46 1;
#X connect 48 0 53 0;
#X connect 49 0 51 0;
#X connect 49 0 52 0;
#X connect 49 0 55 0;
#X connect 49 0 57 0;
#X connect 50 0 48 0;
#X connect 51 0 48 1;
#X connect 52 0 48 2;
#X connect 54 0 29 4;
#X connect 55 0 48 3;
#X connect 56 0 29 3;
#X connect 57 0 48 4;
#X connect 58 0 15 0;
#X connect 58 0 15 1;
