#N canvas 928 75 663 677 10;
#X obj 21 184 s android;
#X obj 21 148 r test;
#X msg 44 74 \; pd dsp \$1 \;;
#X obj 44 54 tgl 15 0 empty empty empty 17 7 0 10 -262144 -1 -1 0 1
;
#X obj 44 32 r mute;
#X obj 408 350 dac~;
#X obj 349 27 r freq;
#X obj 401 181 sig~;
#X obj 383 144 line;
#X obj 357 77 t b f;
#X obj 413 240 osc~;
#X msg 371 109 100;
#X obj 417 285 *~ 0.2;
#X obj 361 53 * 20;
#X obj 92 385 writesf~ 2;
#X msg 12 333 start;
#X msg 169 327 stop;
#X obj 12 300 r start;
#X obj 206 294 r stop;
#X obj 164 124 s start;
#X obj 164 93 bng 15 250 50 0 empty empty empty 17 7 0 10 -262144 -1
-1;
#X obj 224 91 bng 15 250 50 0 empty empty empty 17 7 0 10 -262144 -1
-1;
#X obj 224 123 s stop;
#X obj 493 100 s freq;
#X floatatom 492 67 5 0 0 0 - - -;
#X obj 79 220 r countRecord;
#X msg 95 307 open \$1;
#N canvas 419 250 450 300 timer 0;
#X obj 165 52 inlet;
#X text 163 23 start;
#X obj 256 45 inlet;
#X text 255 28 stop;
#X obj 157 199 outlet;
#X text 154 226 minutes;
#X obj 269 203 outlet;
#X text 267 227 seconds;
#X obj 343 70 inlet;
#X text 342 46 reset;
#N canvas 94 228 450 300 counter 0;
#X obj 84 130 inlet;
#X obj 120 184 f;
#X obj 190 191 + 1;
#X floatatom 120 242 5 0 0 0 - - -;
#X obj 190 213 mod 60;
#X obj 120 269 outlet;
#X msg 226 164 0;
#X obj 226 137 inlet;
#X text 225 115 reset;
#X text 83 98 start;
#X obj 120 161 metro 1000;
#X msg 127 131 stop;
#X obj 127 97 inlet;
#X text 127 73 stop;
#X connect 0 0 10 0;
#X connect 1 0 2 0;
#X connect 1 0 3 0;
#X connect 2 0 4 0;
#X connect 3 0 5 0;
#X connect 4 0 1 1;
#X connect 6 0 1 1;
#X connect 7 0 6 0;
#X connect 10 0 1 0;
#X connect 11 0 10 0;
#X connect 12 0 11 0;
#X restore 269 164 pd counter sec;
#N canvas 295 198 450 300 counter 0;
#X obj 120 127 inlet;
#X obj 120 184 f;
#X obj 190 191 + 1;
#X floatatom 120 242 5 0 0 0 - - -;
#X obj 190 213 mod 60;
#X obj 120 269 outlet;
#X msg 226 164 0;
#X obj 226 137 inlet;
#X text 225 115 reset;
#X text 119 95 start;
#X msg 172 133 stop;
#X obj 172 98 inlet;
#X text 172 74 stop;
#X obj 120 161 metro 60000;
#X connect 0 0 13 0;
#X connect 1 0 2 0;
#X connect 1 0 3 0;
#X connect 2 0 4 0;
#X connect 3 0 5 0;
#X connect 4 0 1 1;
#X connect 6 0 1 1;
#X connect 7 0 6 0;
#X connect 10 0 13 0;
#X connect 11 0 10 0;
#X connect 13 0 1 0;
#X restore 156 164 pd counter min;
#X connect 0 0 10 0;
#X connect 0 0 11 0;
#X connect 2 0 10 1;
#X connect 2 0 11 1;
#X connect 8 0 10 2;
#X connect 8 0 11 2;
#X connect 10 0 6 0;
#X connect 11 0 4 0;
#X restore 210 407 pd timer;
#X floatatom 255 436 5 0 0 0 - - -;
#X floatatom 210 438 5 0 0 0 - - -;
#X obj 255 465 s sec;
#X obj 210 467 s min;
#X obj 79 249 makefilename /mnt/sdcard/pd_record/pd_record_%d;
#X connect 1 0 0 0;
#X connect 3 0 2 0;
#X connect 4 0 3 0;
#X connect 6 0 13 0;
#X connect 7 0 10 0;
#X connect 8 0 7 0;
#X connect 9 0 11 0;
#X connect 9 1 8 0;
#X connect 10 0 12 0;
#X connect 11 0 8 1;
#X connect 12 0 5 0;
#X connect 12 0 5 1;
#X connect 12 0 14 1;
#X connect 12 0 14 0;
#X connect 13 0 9 0;
#X connect 15 0 14 0;
#X connect 16 0 14 0;
#X connect 17 0 15 0;
#X connect 17 0 27 0;
#X connect 18 0 16 0;
#X connect 18 0 27 2;
#X connect 18 0 27 1;
#X connect 20 0 19 0;
#X connect 21 0 22 0;
#X connect 24 0 23 0;
#X connect 25 0 32 0;
#X connect 26 0 14 0;
#X connect 27 0 29 0;
#X connect 27 1 28 0;
#X connect 28 0 30 0;
#X connect 29 0 31 0;
#X connect 32 0 26 0;
